<?plantuml 1.2026.2?><svg xmlns="http://www.w3.org/2000/svg" xmlns:xlink="http://www.w3.org/1999/xlink" contentStyleType="text/css" data-diagram-type="STATE" height="1147px" preserveAspectRatio="none" style="width:471px;height:1147px;background:#FFFFFF;" version="1.1" viewBox="0 0 471 1147" width="471px" zoomAndPan="magnify"><title>Mantis Lords Boss Fight &#8212; Phase Machine (BossFightController)</title><defs/><g><g class="title" data-source-line="2"><text fill="#000000" font-family="'DejaVu Sans'" font-size="14" font-weight="bold" lengthAdjust="spacing" textLength="443.1755" x="10" y="24.9659">Mantis Lords Boss Fight &#8212; Phase Machine (BossFightController)</text></g><g class="entity" data-qualified-name="Dormant" id="ent0002"><rect fill="#F7F9FC" height="69.0323" rx="3" ry="3" style="stroke:#2471A3;stroke-width:0.5;" width="118.0047" x="165.7673" y="127.0679"/><line style="stroke:#2471A3;stroke-width:0.5;" x1="165.7673" x2="283.772" y1="153.412" y2="153.412"/><text fill="#1A2533" font-family="'DejaVu Sans'" font-size="12" lengthAdjust="spacing" textLength="50.6763" x="199.4315" y="144.896">Dormant</text><text fill="#1A2533" font-family="'DejaVu Sans'" font-size="12" lengthAdjust="spacing" textLength="92.7967" x="170.7673" y="171.2401">left/right asleep,</text><text fill="#1A2533" font-family="'DejaVu Sans'" font-size="12" lengthAdjust="spacing" textLength="98.0047" x="170.7673" y="187.5842">middle on throne</text></g><g class="entity" data-qualified-name="Phase1_Middle" id="ent0003"><rect fill="#F7F9FC" height="52.6882" rx="3" ry="3" style="stroke:#2471A3;stroke-width:0.5;" width="154.401" x="147.5673" y="290.0979"/><line style="stroke:#2471A3;stroke-width:0.5;" x1="147.5673" x2="301.9683" y1="316.442" y2="316.442"/><text fill="#1A2533" font-family="'DejaVu Sans'" font-size="12" lengthAdjust="spacing" textLength="84.7206" x="182.4075" y="307.926">Phase1_Middle</text><text fill="#1A2533" font-family="'DejaVu Sans'" font-size="12" lengthAdjust="spacing" textLength="134.401" x="152.5673" y="334.2701">middle lord attacks solo</text></g><g class="entity" data-qualified-name="Phase2_Transition" id="ent0004"><rect fill="#F7F9FC" height="52.6882" rx="3" ry="3" style="stroke:#2471A3;stroke-width:0.5;" width="198.5852" x="125.4773" y="420.7879"/><line style="stroke:#2471A3;stroke-width:0.5;" x1="125.4773" x2="324.0626" y1="447.132" y2="447.132"/><text fill="#1A2533" font-family="'DejaVu Sans'" font-size="12" lengthAdjust="spacing" textLength="102.8407" x="173.3496" y="438.616">Phase2_Transition</text><text fill="#1A2533" font-family="'DejaVu Sans'" font-size="12" lengthAdjust="spacing" textLength="178.5852" x="130.4773" y="464.9601">wait MantisSiblingStaggerDelay</text></g><g class="entity" data-qualified-name="Phase2_Sides" id="ent0005"><rect fill="#F7F9FC" height="69.0323" rx="3" ry="3" style="stroke:#2471A3;stroke-width:0.5;" width="222.5975" x="113.4673" y="584.4779"/><line style="stroke:#2471A3;stroke-width:0.5;" x1="113.4673" x2="336.0648" y1="610.822" y2="610.822"/><text fill="#1A2533" font-family="'DejaVu Sans'" font-size="12" lengthAdjust="spacing" textLength="75.6965" x="186.9178" y="602.306">Phase2_Sides</text><text fill="#1A2533" font-family="'DejaVu Sans'" font-size="12" lengthAdjust="spacing" textLength="111.6248" x="118.4673" y="628.6501">left + right attack as</text><text fill="#1A2533" font-family="'DejaVu Sans'" font-size="12" lengthAdjust="spacing" textLength="202.5975" x="118.4673" y="644.9942">leader/follower pairs (synchronised)</text></g><g class="entity" data-qualified-name="Phase3_Solo" id="ent0006"><rect fill="#F7F9FC" height="52.6882" rx="3" ry="3" style="stroke:#2471A3;stroke-width:0.5;" width="166.7611" x="64.3873" y="731.5079"/><line style="stroke:#2471A3;stroke-width:0.5;" x1="64.3873" x2="231.1484" y1="757.852" y2="757.852"/><text fill="#1A2533" font-family="'DejaVu Sans'" font-size="12" lengthAdjust="spacing" textLength="70.3205" x="112.6076" y="749.336">Phase3_Solo</text><text fill="#1A2533" font-family="'DejaVu Sans'" font-size="12" lengthAdjust="spacing" textLength="146.7611" x="69.3873" y="775.6801">surviving lord attacks solo</text></g><g class="entity" data-qualified-name="Victory_Bow" id="ent0007"><rect fill="#F7F9FC" height="52.6882" rx="3" ry="3" style="stroke:#2471A3;stroke-width:0.5;" width="181.0411" x="134.2473" y="862.1979"/><line style="stroke:#2471A3;stroke-width:0.5;" x1="134.2473" x2="315.2885" y1="888.542" y2="888.542"/><text fill="#1A2533" font-family="'DejaVu Sans'" font-size="12" lengthAdjust="spacing" textLength="68.5445" x="190.4957" y="880.026">Victory_Bow</text><text fill="#1A2533" font-family="'DejaVu Sans'" font-size="12" lengthAdjust="spacing" textLength="161.0411" x="139.2473" y="906.3701">all survivors CommandBow()</text></g><g class="start_entity" data-qualified-name=".start." data-source-line="4" id="ent0002"><ellipse cx="224.7673" cy="56.0679" fill="#222222" rx="10" ry="10" style="stroke:#222222;stroke-width:1;"/></g><g class="entity" data-qualified-name="Done" id="ent0010"><rect fill="#F7F9FC" height="50" rx="3" ry="3" style="stroke:#2471A3;stroke-width:0.5;" width="50.2042" x="199.6673" y="1008.8879"/><line style="stroke:#2471A3;stroke-width:0.5;" x1="199.6673" x2="249.8715" y1="1035.232" y2="1035.232"/><text fill="#1A2533" font-family="'DejaVu Sans'" font-size="12" lengthAdjust="spacing" textLength="30.2042" x="209.6673" y="1026.716">Done</text></g><g class="end_entity" data-qualified-name=".end." data-source-line="25" id="ent0012"><ellipse cx="224.7673" cy="1130.8879" fill="none" rx="11" ry="11" style="stroke:#222222;stroke-width:1;"/><ellipse cx="224.7673" cy="1130.8879" fill="#222222" rx="6" ry="6" style="stroke:#222222;stroke-width:1;"/></g><!--link *start* to Dormant--><g class="link" data-entity-1="ent0002" data-entity-2="ent0002" data-link-type="dependency" data-source-line="4" id="lnk3"><path d="M224.7673,66.2579 C224.7673,79.7179 224.7673,99.4979 224.7673,120.7079" fill="none" id="*start*-to-Dormant" style="stroke:#34495E;stroke-width:1;"/><polygon fill="#34495E" points="224.7673,126.7079,228.7673,117.7079,224.7673,121.7079,220.7673,117.7079,224.7673,126.7079" style="stroke:#34495E;stroke-width:1;"/></g><!--link Dormant to Phase1_Middle--><g class="link" data-entity-1="ent0002" data-entity-2="ent0003" data-link-type="dependency" data-source-line="7" id="lnk4"><path d="M224.7673,196.5079 C224.7673,224.6579 224.7673,258.0779 224.7673,283.6879" fill="none" id="Dormant-to-Phase1_Middle" style="stroke:#34495E;stroke-width:1;"/><polygon fill="#34495E" points="224.7673,289.6879,228.7673,280.6879,224.7673,284.6879,220.7673,280.6879,224.7673,289.6879" style="stroke:#34495E;stroke-width:1;"/><text fill="#000000" font-family="'DejaVu Sans'" font-size="12" lengthAdjust="spacing" textLength="86.8806" x="236.7294" y="239.926">fight engaged /</text><text fill="#000000" font-family="'DejaVu Sans'" font-size="12" lengthAdjust="spacing" textLength="108.8047" x="225.7673" y="256.2701">EngageArenaLock()</text></g><!--link Phase1_Middle to Phase2_Transition--><g class="link" data-entity-1="ent0003" data-entity-2="ent0004" data-link-type="dependency" data-source-line="10" id="lnk5"><path d="M224.7673,343.1779 C224.7673,365.6279 224.7673,392.0179 224.7673,414.4479" fill="none" id="Phase1_Middle-to-Phase2_Transition" style="stroke:#34495E;stroke-width:1;"/><polygon fill="#34495E" points="224.7673,420.4479,228.7673,411.4479,224.7673,415.4479,220.7673,411.4479,224.7673,420.4479" style="stroke:#34495E;stroke-width:1;"/><text fill="#000000" font-family="'DejaVu Sans'" font-size="12" lengthAdjust="spacing" textLength="145.273" x="225.7673" y="386.616">middle.IsInWoundedPose</text></g><!--link Phase2_Transition to Phase2_Sides--><g class="link" data-entity-1="ent0004" data-entity-2="ent0005" data-link-type="dependency" data-source-line="13" id="lnk6"><path d="M224.7673,473.9379 C224.7673,503.3579 224.7673,545.5679 224.7673,578.0279" fill="none" id="Phase2_Transition-to-Phase2_Sides" style="stroke:#34495E;stroke-width:1;"/><polygon fill="#34495E" points="224.7673,584.0279,228.7673,575.0279,224.7673,579.0279,220.7673,575.0279,224.7673,584.0279" style="stroke:#34495E;stroke-width:1;"/><text fill="#000000" font-family="'DejaVu Sans'" font-size="12" lengthAdjust="spacing" textLength="69.6245" x="262.8056" y="517.306">delay done /</text><text fill="#000000" font-family="'DejaVu Sans'" font-size="12" lengthAdjust="spacing" textLength="138.745" x="228.2453" y="533.6501">Left.CommandActivate(),</text><text fill="#000000" font-family="'DejaVu Sans'" font-size="12" lengthAdjust="spacing" textLength="143.701" x="225.7673" y="549.9942">Right.CommandActivate()</text></g><!--link Phase2_Sides to Phase3_Solo--><g class="link" data-entity-1="ent0005" data-entity-2="ent0006" data-link-type="dependency" data-source-line="16" id="lnk7"><path d="M190.7773,653.9479 C183.0573,662.9979 175.4573,673.1579 169.7673,683.5079 C161.6373,698.3079 157.5454,710.6407 154.0854,725.1907" fill="none" id="Phase2_Sides-to-Phase3_Solo" style="stroke:#34495E;stroke-width:1;"/><polygon fill="#34495E" points="152.6973,731.0279,158.671,723.1975,153.8541,726.1636,150.888,721.3467,152.6973,731.0279" style="stroke:#34495E;stroke-width:1;"/><text fill="#000000" font-family="'DejaVu Sans'" font-size="12" lengthAdjust="spacing" textLength="103.4287" x="170.7673" y="697.336">one lord wounded</text></g><!--link Phase2_Sides to Victory_Bow--><g class="link" data-entity-1="ent0005" data-entity-2="ent0007" data-link-type="dependency" data-source-line="17" id="lnk8"><path d="M260.8573,653.7079 C268.1673,662.6179 274.8273,672.7779 278.7673,683.5079 C301.5673,745.5379 303.6773,770.9879 278.7673,832.1979 C274.2673,843.2679 270.6024,849.0777 262.2124,857.4977" fill="none" id="Phase2_Sides-to-Victory_Bow" style="stroke:#34495E;stroke-width:1;"/><polygon fill="#34495E" points="257.9773,861.7479,267.1634,858.196,261.5065,858.2061,261.4965,852.5492,257.9773,861.7479" style="stroke:#34495E;stroke-width:1;"/><text fill="#000000" font-family="'DejaVu Sans'" font-size="12" lengthAdjust="spacing" textLength="114.1208" x="297.6673" y="762.686">both lords wounded</text></g><!--link Phase3_Solo to Victory_Bow--><g class="link" data-entity-1="ent0006" data-entity-2="ent0007" data-link-type="dependency" data-source-line="20" id="lnk9"><path d="M151.3273,784.6179 C154.1773,799.3179 159.1773,817.6479 167.7673,832.1979 C174.2173,843.1279 179.0367,849.2266 188.1467,857.8366" fill="none" id="Phase3_Solo-to-Victory_Bow" style="stroke:#34495E;stroke-width:1;"/><polygon fill="#34495E" points="192.5073,861.9579,188.7139,852.8689,188.8735,858.5235,183.2189,858.6831,192.5073,861.9579" style="stroke:#34495E;stroke-width:1;"/><text fill="#000000" font-family="'DejaVu Sans'" font-size="12" lengthAdjust="spacing" textLength="105.3488" x="168.7673" y="828.026">solo lord wounded</text></g><!--link Victory_Bow to Done--><g class="link" data-entity-1="ent0007" data-entity-2="ent0010" data-link-type="dependency" data-source-line="23" id="lnk11"><path d="M224.7673,915.1679 C224.7673,941.5879 224.7673,976.4679 224.7673,1002.4379" fill="none" id="Victory_Bow-to-Done" style="stroke:#34495E;stroke-width:1;"/><polygon fill="#34495E" points="224.7673,1008.4379,228.7673,999.4379,224.7673,1003.4379,220.7673,999.4379,224.7673,1008.4379" style="stroke:#34495E;stroke-width:1;"/><text fill="#000000" font-family="'DejaVu Sans'" font-size="12" lengthAdjust="spacing" textLength="112.3448" x="229.6133" y="958.716">all IsBowComplete /</text><text fill="#000000" font-family="'DejaVu Sans'" font-size="12" lengthAdjust="spacing" textLength="120.0368" x="225.7673" y="975.0601">disengage arena lock</text></g><!--link Done to *end*--><g class="link" data-entity-1="ent0010" data-entity-2="ent0012" data-link-type="dependency" data-source-line="25" id="lnk13"><path d="M224.7673,1059.3479 C224.7673,1078.9279 224.7673,1099.3779 224.7673,1113.6879" fill="none" id="Done-to-*end*" style="stroke:#34495E;stroke-width:1;"/><polygon fill="#34495E" points="224.7673,1119.6879,228.7673,1110.6879,224.7673,1114.6879,220.7673,1110.6879,224.7673,1119.6879" style="stroke:#34495E;stroke-width:1;"/></g><?plantuml-src TLFDZjem4BxxAQOtQBkWjhSzLDgVLa9YfLMfsiDIHTvuI2oC1ta64BS-H9-mJzAn2OY0Uaioty_u-vmtFjPXun0gbdt0qNgp2aQy18Gd6yKpJ2avXdjYXg--QGN-_lu3pwtbZAXR7n46ULg63nGbKGYOXiQylFq5DpUVuP7IIhMCOR62nrUuXO0B6QSYQZaWhj_Fuyexf-OKGTf44SqHdfMAxOVgwO2vXKNXOcniWmx6y_YbFDubZ7PAzN8mF9fUCZkRe8S3AsBh9GDJ8DC7dam_Lj-JZUp5wsP7-cZ2a_YJDj6XUoR6dja5OsUzT97E_6lmiPc9RHfCZnZitbnJpgndtY6hXijGS9fAFkjKqnizq4hJSNUr-ArQ3uOQuRUSolNaOhkZQ2u1ta5NGub2svZ7WDPX6Y-qJTfXWhNrYM70-rZdOZoZ6vgUrcdZJzLCerJjl6c9U7S8wHh_mzT2QL_TqqxnhoHj8V29SRxqIPStQUktck7_2koGrmuPqb-fC-Z3R0YT2UcXkoXrf2cU0m-tEsB7cB1-LF0we9IAdAPKRYJOV2NLk5uQKnYPgZ-8-GS0?></g></svg>