<?plantuml 1.2026.2?><svg xmlns="http://www.w3.org/2000/svg" xmlns:xlink="http://www.w3.org/1999/xlink" contentStyleType="text/css" data-diagram-type="CLASS" height="1044px" preserveAspectRatio="none" style="width:1285px;height:1044px;background:#FFFFFF;" version="1.1" viewBox="0 0 1285 1044" width="1285px" zoomAndPan="magnify"><title>Collision Subsystem &#8212; Class Structure</title><defs/><g><g class="title" data-source-line="2"><text fill="#000000" font-family="'DejaVu Sans'" font-size="14" font-weight="bold" lengthAdjust="spacing" textLength="265.1346" x="502.9775" y="24.9659">Collision Subsystem &#8212; Class Structure</text></g><!--class ICollidable--><g class="entity" data-qualified-name="ICollidable" data-source-line="4" id="ent0002"><rect fill="#F7F9FC" height="107.7206" rx="3" ry="3" style="stroke:#34495E;stroke-width:0.5;" width="168.125" x="491.89" y="855.8779"/><ellipse cx="543.5663" cy="877.222" fill="#B4A7E5" rx="10" ry="10" style="stroke:#181818;stroke-width:1;"/><path d="M546.0194,881.722 L542.5507,881.722 L542.5507,880.7533 L543.5507,880.5189 L543.5507,873.9877 L542.5507,873.7533 L542.5507,872.7845 L546.0194,872.7845 L546.0194,873.7533 L545.0038,873.9877 L545.0038,880.5189 L546.0194,880.7533 L546.0194,881.722 Z " fill="#000000"/><text fill="#7D3C98" font-family="DejaVu Sans" font-size="12" font-style="italic" lengthAdjust="spacing" textLength="58.2964" x="561.8043" y="873.706">&#171;interface&#187;</text><text fill="#4A5568" font-family="'DejaVu Sans'" font-size="12" font-style="italic" lengthAdjust="spacing" textLength="56.7724" x="562.5663" y="890.0501">ICollidable</text><line style="stroke:#34495E;stroke-width:0.5;" x1="492.89" x2="659.015" y1="898.5661" y2="898.5661"/><g data-visibility-modifier="PUBLIC_FIELD"><ellipse cx="502.89" cy="912.2382" fill="none" rx="3" ry="3" style="stroke:#038048;stroke-width:1;"/></g><text fill="#4A5568" font-family="'DejaVu Sans'" font-size="12" lengthAdjust="spacing" textLength="142.009" x="510.89" y="915.3942">Bounds : Rectangle &#171;get&#187;</text><g data-visibility-modifier="PUBLIC_FIELD"><ellipse cx="502.89" cy="928.5823" fill="none" rx="3" ry="3" style="stroke:#038048;stroke-width:1;"/></g><text fill="#4A5568" font-family="'DejaVu Sans'" font-size="12" lengthAdjust="spacing" textLength="111.8048" x="510.89" y="931.7383">IsActive : bool &#171;get&#187;</text><line style="stroke:#34495E;stroke-width:0.5;" x1="492.89" x2="659.015" y1="939.2544" y2="939.2544"/><g data-visibility-modifier="PUBLIC_METHOD"><ellipse cx="502.89" cy="952.9264" fill="#84BE84" rx="3" ry="3" style="stroke:#038048;stroke-width:1;"/></g><text fill="#4A5568" font-family="'DejaVu Sans'" font-size="12" lengthAdjust="spacing" textLength="143.125" x="510.89" y="956.0825">GetBounds() : Rectangle[]</text></g><!--class CollisionSystem--><g class="entity" data-qualified-name="CollisionSystem" data-source-line="10" id="ent0003"><rect fill="#F7F9FC" height="144.0647" rx="3" ry="3" style="stroke:#34495E;stroke-width:0.5;" width="256.4097" x="404.75" y="47.0679"/><ellipse cx="484.7405" cy="62.0679" fill="#ADD1B2" rx="10" ry="10" style="stroke:#181818;stroke-width:1;"/><path d="M484.2718,58.8335 Q483.6155,58.8335 483.0999,59.0523 Q482.5843,59.271 482.2249,59.6929 Q481.8811,60.0992 481.678,60.7085 Q481.4905,61.3179 481.4905,62.0992 Q481.4905,63.1148 481.803,63.8492 Q482.1155,64.5835 482.7249,64.9742 Q483.3343,65.3648 484.2561,65.3648 Q484.803,65.3648 485.2874,65.271 Q485.7718,65.1773 486.4905,64.9742 L486.4905,66.271 Q485.8655,66.521 485.3343,66.5992 Q484.8186,66.6929 484.0999,66.6929 Q482.7405,66.6929 481.8186,66.1304 Q480.8968,65.5523 480.428,64.521 Q479.9749,63.4742 479.9749,62.0835 Q479.9749,61.0835 480.2405,60.2554 Q480.5218,59.4117 481.0686,58.8023 Q481.6311,58.1773 482.4436,57.8492 Q483.2561,57.5054 484.2718,57.5054 Q484.9593,57.5054 485.5843,57.646 Q486.2249,57.7867 486.8968,58.0992 L486.303,59.3648 Q485.7561,59.0992 485.2718,58.9742 Q484.803,58.8335 484.2718,58.8335 Z " fill="#000000"/><text fill="#4A5568" font-family="'DejaVu Sans'" font-size="12" lengthAdjust="spacing" textLength="88.4286" x="503.7405" y="66.7239">CollisionSystem</text><line style="stroke:#34495E;stroke-width:0.5;" x1="405.75" x2="660.1597" y1="77.0679" y2="77.0679"/><g data-visibility-modifier="PRIVATE_FIELD"><rect fill="none" height="6" style="stroke:#C82930;stroke-width:1;" width="6" x="412.75" y="87.74"/></g><text fill="#4A5568" font-family="'DejaVu Sans'" font-size="12" lengthAdjust="spacing" textLength="151.4411" x="423.75" y="93.896">_handler : CollisionHandler</text><g data-visibility-modifier="PRIVATE_FIELD"><rect fill="none" height="6" style="stroke:#C82930;stroke-width:1;" width="6" x="412.75" y="104.0841"/></g><text fill="#4A5568" font-family="'DejaVu Sans'" font-size="12" lengthAdjust="spacing" textLength="151.381" x="423.75" y="110.2401">_currentKnight : TheKnight</text><line style="stroke:#34495E;stroke-width:0.5;" x1="405.75" x2="660.1597" y1="117.7561" y2="117.7561"/><g data-visibility-modifier="PUBLIC_METHOD"><ellipse cx="415.75" cy="131.4282" fill="#84BE84" rx="3" ry="3" style="stroke:#038048;stroke-width:1;"/></g><text fill="#4A5568" font-family="'DejaVu Sans'" font-size="12" lengthAdjust="spacing" textLength="95.6287" x="423.75" y="134.5842">CollisionSystem()</text><g data-visibility-modifier="PUBLIC_METHOD"><ellipse cx="415.75" cy="155.9444" fill="#84BE84" rx="3" ry="3" style="stroke:#038048;stroke-width:1;"/></g><text fill="#4A5568" font-family="'DejaVu Sans'" font-size="12" lengthAdjust="spacing" textLength="224.8696" x="423.75" y="150.9283">Update(knight, platforms, interactables,</text><text fill="#4A5568" font-family="'DejaVu Sans'" font-size="12" lengthAdjust="spacing" textLength="225.1696" x="429.9901" y="167.2725">enemies, items, projMgr, navGrid) : void</text><g data-visibility-modifier="PRIVATE_METHOD"><rect fill="#F24D5C" height="6" style="stroke:#C82930;stroke-width:1;" width="6" x="412.75" y="177.4605"/></g><text fill="#4A5568" font-family="'DejaVu Sans'" font-size="12" lengthAdjust="spacing" textLength="100.8607" x="423.75" y="183.6166">RegisterAll() : void</text></g><!--class CollisionHandler--><g class="entity" data-qualified-name="CollisionHandler" data-source-line="17" id="ent0004"><rect fill="#F7F9FC" height="111.3765" rx="3" ry="3" style="stroke:#34495E;stroke-width:0.5;" width="295.9019" x="7" y="438.8879"/><ellipse cx="104.5046" cy="453.8879" fill="#ADD1B2" rx="10" ry="10" style="stroke:#181818;stroke-width:1;"/><path d="M104.0359,450.6535 Q103.3796,450.6535 102.864,450.8723 Q102.3484,451.091 101.989,451.5129 Q101.6452,451.9192 101.4421,452.5285 Q101.2546,453.1379 101.2546,453.9192 Q101.2546,454.9348 101.5671,455.6692 Q101.8796,456.4035 102.489,456.7942 Q103.0984,457.1848 104.0202,457.1848 Q104.5671,457.1848 105.0515,457.091 Q105.5359,456.9973 106.2546,456.7942 L106.2546,458.091 Q105.6296,458.341 105.0984,458.4192 Q104.5827,458.5129 103.864,458.5129 Q102.5046,458.5129 101.5827,457.9504 Q100.6609,457.3723 100.1921,456.341 Q99.739,455.2942 99.739,453.9035 Q99.739,452.9035 100.0046,452.0754 Q100.2859,451.2317 100.8327,450.6223 Q101.3952,449.9973 102.2077,449.6692 Q103.0202,449.3254 104.0359,449.3254 Q104.7234,449.3254 105.3484,449.466 Q105.989,449.6067 106.6609,449.9192 L106.0671,451.1848 Q105.5202,450.9192 105.0359,450.7942 Q104.5671,450.6535 104.0359,450.6535 Z " fill="#000000"/><text fill="#4A5568" font-family="'DejaVu Sans'" font-size="12" lengthAdjust="spacing" textLength="92.8927" x="123.5046" y="458.5439">CollisionHandler</text><line style="stroke:#34495E;stroke-width:0.5;" x1="8" x2="301.9019" y1="468.8879" y2="468.8879"/><line style="stroke:#34495E;stroke-width:0.5;" x1="8" x2="301.9019" y1="476.8879" y2="476.8879"/><g data-visibility-modifier="PRIVATE_METHOD"><rect fill="#F24D5C" height="6" style="stroke:#C82930;stroke-width:1;" width="6" x="15" y="495.732"/></g><text fill="#4A5568" font-family="'DejaVu Sans'" font-size="12" lengthAdjust="spacing" textLength="270.9019" x="26" y="493.716">_handlers : Dictionary&lt;(Type,Type,CollisionSide),</text><text fill="#4A5568" font-family="'DejaVu Sans'" font-size="12" lengthAdjust="spacing" textLength="178.4533" x="32.2401" y="510.0601">Action&lt;ICollidable,ICollidable&gt;&gt;</text><g data-visibility-modifier="PUBLIC_METHOD"><ellipse cx="18" cy="523.2482" fill="#84BE84" rx="3" ry="3" style="stroke:#038048;stroke-width:1;"/></g><text fill="#4A5568" font-family="'DejaVu Sans'" font-size="12" lengthAdjust="spacing" textLength="200.7854" x="26" y="526.4042">Register&lt;A,B&gt;(side, response) : void</text><g data-visibility-modifier="PUBLIC_METHOD"><ellipse cx="18" cy="539.5923" fill="#84BE84" rx="3" ry="3" style="stroke:#038048;stroke-width:1;"/></g><text fill="#4A5568" font-family="'DejaVu Sans'" font-size="12" lengthAdjust="spacing" textLength="178.2013" x="26" y="542.7483">HandleCollision(a, b, side) : void</text></g><!--class CollisionDetector--><g class="entity" data-qualified-name="CollisionDetector" data-source-line="22" id="ent0005"><rect fill="#F7F9FC" height="75.0323" rx="3" ry="3" style="stroke:#34495E;stroke-width:0.5;" width="170.309" x="241.8" y="604.7779"/><ellipse cx="275.4741" cy="626.122" fill="#ADD1B2" rx="10" ry="10" style="stroke:#181818;stroke-width:1;"/><path d="M275.0054,622.8877 Q274.3491,622.8877 273.8335,623.1064 Q273.3179,623.3252 272.9585,623.747 Q272.6148,624.1533 272.4116,624.7627 Q272.2241,625.372 272.2241,626.1533 Q272.2241,627.1689 272.5366,627.9033 Q272.8491,628.6377 273.4585,629.0283 Q274.0679,629.4189 274.9898,629.4189 Q275.5366,629.4189 276.021,629.3252 Q276.5054,629.2314 277.2241,629.0283 L277.2241,630.3252 Q276.5991,630.5752 276.0679,630.6533 Q275.5523,630.747 274.8335,630.747 Q273.4741,630.747 272.5523,630.1845 Q271.6304,629.6064 271.1616,628.5752 Q270.7085,627.5283 270.7085,626.1377 Q270.7085,625.1377 270.9741,624.3095 Q271.2554,623.4658 271.8023,622.8564 Q272.3648,622.2314 273.1773,621.9033 Q273.9898,621.5595 275.0054,621.5595 Q275.6929,621.5595 276.3179,621.7002 Q276.9585,621.8408 277.6304,622.1533 L277.0366,623.4189 Q276.4898,623.1533 276.0054,623.0283 Q275.5366,622.8877 275.0054,622.8877 Z " fill="#000000"/><text fill="#7D3C98" font-family="DejaVu Sans" font-size="12" font-style="italic" lengthAdjust="spacing" textLength="39.9483" x="321.1664" y="622.606">&#171;static&#187;</text><text fill="#4A5568" font-family="'DejaVu Sans'" font-size="12" lengthAdjust="spacing" textLength="96.5887" x="292.8462" y="638.9501">CollisionDetector</text><line style="stroke:#34495E;stroke-width:0.5;" x1="242.8" x2="411.109" y1="647.4661" y2="647.4661"/><line style="stroke:#34495E;stroke-width:0.5;" x1="242.8" x2="411.109" y1="655.4661" y2="655.4661"/><g data-visibility-modifier="PUBLIC_METHOD"><ellipse cx="252.8" cy="669.1382" fill="#84BE84" rx="3" ry="3" style="stroke:#038048;stroke-width:1;"/></g><text fill="#4A5568" font-family="'DejaVu Sans'" font-size="12" lengthAdjust="spacing" text-decoration="underline" textLength="145.309" x="260.8" y="672.2942">Detect(a, b) : CollisionSide</text></g><!--class CollisionGroupBuilder--><g class="entity" data-qualified-name="CollisionGroupBuilder" data-source-line="25" id="ent0006"><rect fill="#F7F9FC" height="75.0323" rx="3" ry="3" style="stroke:#34495E;stroke-width:0.5;" width="241.7456" x="603.08" y="457.0579"/><ellipse cx="657.9963" cy="478.402" fill="#ADD1B2" rx="10" ry="10" style="stroke:#181818;stroke-width:1;"/><path d="M657.5276,475.1677 Q656.8713,475.1677 656.3557,475.3864 Q655.8401,475.6052 655.4807,476.027 Q655.137,476.4333 654.9338,477.0427 Q654.7463,477.652 654.7463,478.4333 Q654.7463,479.4489 655.0588,480.1833 Q655.3713,480.9177 655.9807,481.3083 Q656.5901,481.6989 657.512,481.6989 Q658.0588,481.6989 658.5432,481.6052 Q659.0276,481.5114 659.7463,481.3083 L659.7463,482.6052 Q659.1213,482.8552 658.5901,482.9333 Q658.0745,483.027 657.3557,483.027 Q655.9963,483.027 655.0745,482.4645 Q654.1526,481.8864 653.6838,480.8552 Q653.2307,479.8083 653.2307,478.4177 Q653.2307,477.4177 653.4963,476.5895 Q653.7776,475.7458 654.3245,475.1364 Q654.887,474.5114 655.6995,474.1833 Q656.512,473.8395 657.5276,473.8395 Q658.2151,473.8395 658.8401,473.9802 Q659.4807,474.1208 660.1526,474.4333 L659.5588,475.6989 Q659.012,475.4333 658.5276,475.3083 Q658.0588,475.1677 657.5276,475.1677 Z " fill="#000000"/><text fill="#7D3C98" font-family="DejaVu Sans" font-size="12" font-style="italic" lengthAdjust="spacing" textLength="39.9483" x="718.9786" y="474.886">&#171;static&#187;</text><text fill="#4A5568" font-family="'DejaVu Sans'" font-size="12" lengthAdjust="spacing" textLength="123.9129" x="676.9963" y="491.2301">CollisionGroupBuilder</text><line style="stroke:#34495E;stroke-width:0.5;" x1="604.08" x2="843.8256" y1="499.7461" y2="499.7461"/><line style="stroke:#34495E;stroke-width:0.5;" x1="604.08" x2="843.8256" y1="507.7461" y2="507.7461"/><g data-visibility-modifier="PUBLIC_METHOD"><ellipse cx="614.08" cy="521.4182" fill="#84BE84" rx="3" ry="3" style="stroke:#038048;stroke-width:1;"/></g><text fill="#4A5568" font-family="'DejaVu Sans'" font-size="12" lengthAdjust="spacing" text-decoration="underline" textLength="216.7456" x="622.08" y="524.5742">GetCollidables&lt;T&gt;(items) : ICollidable[]</text></g><!--class CollisionLayerMatrix--><g class="entity" data-qualified-name="CollisionLayerMatrix" data-source-line="28" id="ent0007"><rect fill="#F7F9FC" height="124.0647" rx="3" ry="3" style="stroke:#34495E;stroke-width:0.5;" width="311.0941" x="810.4" y="580.2679"/><ellipse cx="904.5146" cy="601.612" fill="#ADD1B2" rx="10" ry="10" style="stroke:#181818;stroke-width:1;"/><path d="M904.0459,598.3777 Q903.3896,598.3777 902.874,598.5964 Q902.3584,598.8152 901.999,599.237 Q901.6553,599.6433 901.4521,600.2527 Q901.2646,600.862 901.2646,601.6433 Q901.2646,602.6589 901.5771,603.3933 Q901.8896,604.1277 902.499,604.5183 Q903.1084,604.9089 904.0303,604.9089 Q904.5771,604.9089 905.0615,604.8152 Q905.5459,604.7214 906.2646,604.5183 L906.2646,605.8152 Q905.6396,606.0652 905.1084,606.1433 Q904.5928,606.237 903.874,606.237 Q902.5146,606.237 901.5928,605.6745 Q900.6709,605.0964 900.2021,604.0652 Q899.749,603.0183 899.749,601.6277 Q899.749,600.6277 900.0146,599.7995 Q900.2959,598.9558 900.8428,598.3464 Q901.4053,597.7214 902.2178,597.3933 Q903.0303,597.0495 904.0459,597.0495 Q904.7334,597.0495 905.3584,597.1902 Q905.999,597.3308 906.6709,597.6433 L906.0771,598.9089 Q905.5303,598.6433 905.0459,598.5183 Q904.5771,598.3777 904.0459,598.3777 Z " fill="#000000"/><text fill="#7D3C98" font-family="DejaVu Sans" font-size="12" font-style="italic" lengthAdjust="spacing" textLength="39.9483" x="960.9729" y="598.096">&#171;static&#187;</text><text fill="#4A5568" font-family="'DejaVu Sans'" font-size="12" lengthAdjust="spacing" textLength="114.8648" x="923.5146" y="614.4401">CollisionLayerMatrix</text><line style="stroke:#34495E;stroke-width:0.5;" x1="811.4" x2="1120.4941" y1="622.9561" y2="622.9561"/><g data-visibility-modifier="PRIVATE_FIELD"><rect fill="none" height="6" style="stroke:#C82930;stroke-width:1;" width="6" x="818.4" y="633.6282"/></g><text fill="#4A5568" font-family="'DejaVu Sans'" font-size="12" lengthAdjust="spacing" text-decoration="underline" textLength="286.0941" x="829.4" y="639.7842">_matrix : Dictionary&lt;CollisionLayer, CollisionLayer&gt;</text><line style="stroke:#34495E;stroke-width:0.5;" x1="811.4" x2="1120.4941" y1="647.3003" y2="647.3003"/><g data-visibility-modifier="PUBLIC_METHOD"><ellipse cx="821.4" cy="660.9723" fill="#84BE84" rx="3" ry="3" style="stroke:#038048;stroke-width:1;"/></g><text fill="#4A5568" font-family="'DejaVu Sans'" font-size="12" lengthAdjust="spacing" text-decoration="underline" textLength="139.537" x="829.4" y="664.1283">ShouldCollide(a, b) : bool</text><g data-visibility-modifier="PRIVATE_METHOD"><rect fill="#F24D5C" height="6" style="stroke:#C82930;stroke-width:1;" width="6" x="818.4" y="674.3164"/></g><text fill="#4A5568" font-family="'DejaVu Sans'" font-size="12" lengthAdjust="spacing" text-decoration="underline" textLength="151.6331" x="829.4" y="680.4725">GetLayer(c) : CollisionLayer</text><g data-visibility-modifier="PUBLIC_METHOD"><ellipse cx="821.4" cy="693.6605" fill="#84BE84" rx="3" ry="3" style="stroke:#038048;stroke-width:1;"/></g><text fill="#4A5568" font-family="'DejaVu Sans'" font-size="12" lengthAdjust="spacing" text-decoration="underline" textLength="143.149" x="829.4" y="696.8166">ValidateSymmetry() : void</text></g><!--class CollisionManager--><g class="entity" data-qualified-name="CollisionManager" data-source-line="34" id="ent0008"><rect fill="#F7F9FC" height="156.7529" rx="3" ry="3" style="stroke:#34495E;stroke-width:0.5;" width="308.874" x="378.51" y="252.1379"/><ellipse cx="479.6867" cy="273.482" fill="#ADD1B2" rx="10" ry="10" style="stroke:#181818;stroke-width:1;"/><path d="M479.2179,270.2477 Q478.5617,270.2477 478.046,270.4664 Q477.5304,270.6852 477.171,271.107 Q476.8273,271.5133 476.6242,272.1227 Q476.4367,272.732 476.4367,273.5133 Q476.4367,274.5289 476.7492,275.2633 Q477.0617,275.9977 477.671,276.3883 Q478.2804,276.7789 479.2023,276.7789 Q479.7492,276.7789 480.2335,276.6852 Q480.7179,276.5914 481.4367,276.3883 L481.4367,277.6852 Q480.8117,277.9352 480.2804,278.0133 Q479.7648,278.107 479.046,278.107 Q477.6867,278.107 476.7648,277.5445 Q475.8429,276.9664 475.3742,275.9352 Q474.921,274.8883 474.921,273.4977 Q474.921,272.4977 475.1867,271.6695 Q475.4679,270.8258 476.0148,270.2164 Q476.5773,269.5914 477.3898,269.2633 Q478.2023,268.9195 479.2179,268.9195 Q479.9054,268.9195 480.5304,269.0602 Q481.171,269.2008 481.8429,269.5133 L481.2492,270.7789 Q480.7023,270.5133 480.2179,270.3883 Q479.7492,270.2477 479.2179,270.2477 Z " fill="#000000"/><text fill="#7D3C98" font-family="DejaVu Sans" font-size="12" font-style="italic" lengthAdjust="spacing" textLength="39.9483" x="527.9729" y="269.966">&#171;static&#187;</text><text fill="#4A5568" font-family="'DejaVu Sans'" font-size="12" lengthAdjust="spacing" textLength="98.5207" x="498.6867" y="286.3101">CollisionManager</text><line style="stroke:#34495E;stroke-width:0.5;" x1="379.51" x2="686.384" y1="294.8261" y2="294.8261"/><line style="stroke:#34495E;stroke-width:0.5;" x1="379.51" x2="686.384" y1="302.8261" y2="302.8261"/><g data-visibility-modifier="PUBLIC_METHOD"><ellipse cx="389.51" cy="316.4982" fill="#84BE84" rx="3" ry="3" style="stroke:#038048;stroke-width:1;"/></g><text fill="#4A5568" font-family="'DejaVu Sans'" font-size="12" lengthAdjust="spacing" text-decoration="underline" textLength="268.8859" x="397.51" y="319.6542">ResolvePlayerBlockCollision(knight, block) : void</text><g data-visibility-modifier="PUBLIC_METHOD"><ellipse cx="389.51" cy="332.8423" fill="#84BE84" rx="3" ry="3" style="stroke:#038048;stroke-width:1;"/></g><text fill="#4A5568" font-family="'DejaVu Sans'" font-size="12" lengthAdjust="spacing" text-decoration="underline" textLength="283.874" x="397.51" y="335.9983">ResolveEnemyBlockCollision(vengefly, block) : void</text><g data-visibility-modifier="PUBLIC_METHOD"><ellipse cx="389.51" cy="349.1864" fill="#84BE84" rx="3" ry="3" style="stroke:#038048;stroke-width:1;"/></g><text fill="#4A5568" font-family="'DejaVu Sans'" font-size="12" lengthAdjust="spacing" text-decoration="underline" textLength="280.634" x="397.51" y="352.3425">ResolveCrawlidBlockCollision(crawlid, block) : void</text><g data-visibility-modifier="PUBLIC_METHOD"><ellipse cx="389.51" cy="373.7026" fill="#84BE84" rx="3" ry="3" style="stroke:#038048;stroke-width:1;"/></g><text fill="#4A5568" font-family="'DejaVu Sans'" font-size="12" lengthAdjust="spacing" text-decoration="underline" textLength="215.7976" x="397.51" y="368.6866">ResolveProjectileCollisions(pm, player,</text><text fill="#4A5568" font-family="'DejaVu Sans'" font-size="12" lengthAdjust="spacing" text-decoration="underline" textLength="274.454" x="403.7501" y="385.0307">enemies, blocks, onPlayerHit, onEnemyHit) : void</text><g data-visibility-modifier="PUBLIC_METHOD"><ellipse cx="389.51" cy="398.2188" fill="#84BE84" rx="3" ry="3" style="stroke:#038048;stroke-width:1;"/></g><text fill="#4A5568" font-family="'DejaVu Sans'" font-size="12" lengthAdjust="spacing" text-decoration="underline" textLength="219.8176" x="397.51" y="401.3748">ProjectileHitsCollidable(p, target) : bool</text></g><!--class DebugRenderer--><g class="entity" data-qualified-name="DebugRenderer" data-source-line="41" id="ent0009"><rect fill="#F7F9FC" height="107.7206" rx="3" ry="3" style="stroke:#34495E;stroke-width:0.5;" width="210.2573" x="564.82" y="588.4379"/><ellipse cx="620.8583" cy="609.782" fill="#ADD1B2" rx="10" ry="10" style="stroke:#181818;stroke-width:1;"/><path d="M620.3896,606.5477 Q619.7333,606.5477 619.2177,606.7664 Q618.7021,606.9852 618.3427,607.407 Q617.999,607.8133 617.7958,608.4227 Q617.6083,609.032 617.6083,609.8133 Q617.6083,610.8289 617.9208,611.5633 Q618.2333,612.2977 618.8427,612.6883 Q619.4521,613.0789 620.374,613.0789 Q620.9208,613.0789 621.4052,612.9852 Q621.8896,612.8914 622.6083,612.6883 L622.6083,613.9852 Q621.9833,614.2352 621.4521,614.3133 Q620.9365,614.407 620.2177,614.407 Q618.8583,614.407 617.9365,613.8445 Q617.0146,613.2664 616.5458,612.2352 Q616.0927,611.1883 616.0927,609.7977 Q616.0927,608.7977 616.3583,607.9695 Q616.6396,607.1258 617.1865,606.5164 Q617.749,605.8914 618.5615,605.5633 Q619.374,605.2195 620.3896,605.2195 Q621.0771,605.2195 621.7021,605.3602 Q622.3427,605.5008 623.0146,605.8133 L622.4208,607.0789 Q621.874,606.8133 621.3896,606.6883 Q620.9208,606.5477 620.3896,606.5477 Z " fill="#000000"/><text fill="#7D3C98" font-family="DejaVu Sans" font-size="12" font-style="italic" lengthAdjust="spacing" textLength="39.9483" x="664.9745" y="606.266">&#171;static&#187;</text><text fill="#4A5568" font-family="'DejaVu Sans'" font-size="12" lengthAdjust="spacing" textLength="90.1806" x="639.8583" y="622.6101">DebugRenderer</text><line style="stroke:#34495E;stroke-width:0.5;" x1="565.82" x2="774.0773" y1="631.1261" y2="631.1261"/><g data-visibility-modifier="PUBLIC_FIELD"><ellipse cx="575.82" cy="644.7982" fill="none" rx="3" ry="3" style="stroke:#038048;stroke-width:1;"/></g><text fill="#4A5568" font-family="'DejaVu Sans'" font-size="12" lengthAdjust="spacing" text-decoration="underline" textLength="115.7288" x="583.82" y="647.9542">hitboxEnabled : bool</text><line style="stroke:#34495E;stroke-width:0.5;" x1="565.82" x2="774.0773" y1="655.4703" y2="655.4703"/><g data-visibility-modifier="PUBLIC_METHOD"><ellipse cx="575.82" cy="669.1423" fill="#84BE84" rx="3" ry="3" style="stroke:#038048;stroke-width:1;"/></g><text fill="#4A5568" font-family="'DejaVu Sans'" font-size="12" lengthAdjust="spacing" text-decoration="underline" textLength="185.2573" x="583.82" y="672.2983">DrawBounds(sb, obj, color) : void</text><g data-visibility-modifier="PUBLIC_METHOD"><ellipse cx="575.82" cy="685.4864" fill="#84BE84" rx="3" ry="3" style="stroke:#038048;stroke-width:1;"/></g><text fill="#4A5568" font-family="'DejaVu Sans'" font-size="12" lengthAdjust="spacing" text-decoration="underline" textLength="178.7053" x="583.82" y="688.6425">DrawAll(sb, objects, color) : void</text></g><!--class CollisionSide--><g class="entity" data-qualified-name="CollisionSide" data-source-line="47" id="ent0010"><rect fill="#F7F9FC" height="127.7206" rx="3" ry="3" style="stroke:#34495E;stroke-width:0.5;" width="101.4845" x="154.21" y="845.8779"/><ellipse cx="168.21" cy="860.8779" fill="#EB937F" rx="10" ry="10" style="stroke:#181818;stroke-width:1;"/><path d="M171.0381,865.3779 L165.8663,865.3779 L165.8663,856.4404 L171.0381,856.4404 L171.0381,857.7529 L167.335,857.7529 L167.335,860.0654 L170.8194,860.0654 L170.8194,861.3623 L167.335,861.3623 L167.335,864.0498 L171.0381,864.0498 L171.0381,865.3779 Z " fill="#000000"/><text fill="#4A5568" font-family="'DejaVu Sans'" font-size="12" lengthAdjust="spacing" textLength="71.4845" x="181.21" y="865.5339">CollisionSide</text><line style="stroke:#34495E;stroke-width:0.5;" x1="155.21" x2="254.6945" y1="875.8779" y2="875.8779"/><text fill="#4A5568" font-family="'DejaVu Sans'" font-size="12" lengthAdjust="spacing" textLength="30.5642" x="160.21" y="892.706">None</text><text fill="#4A5568" font-family="'DejaVu Sans'" font-size="12" lengthAdjust="spacing" textLength="21.5162" x="160.21" y="909.0501">Left</text><text fill="#4A5568" font-family="'DejaVu Sans'" font-size="12" lengthAdjust="spacing" textLength="29.6882" x="160.21" y="925.3942">Right</text><text fill="#4A5568" font-family="'DejaVu Sans'" font-size="12" lengthAdjust="spacing" textLength="21.3121" x="160.21" y="941.7383">Top</text><text fill="#4A5568" font-family="'DejaVu Sans'" font-size="12" lengthAdjust="spacing" textLength="42.2043" x="160.21" y="958.0825">Bottom</text><line style="stroke:#34495E;stroke-width:0.5;" x1="155.21" x2="254.6945" y1="965.5985" y2="965.5985"/></g><!--class CollisionLayer--><g class="entity" data-qualified-name="CollisionLayer" data-source-line="54" id="ent0011"><rect fill="#F7F9FC" height="254.8176" rx="3" ry="3" style="stroke:#34495E;stroke-width:0.5;" width="111.3607" x="877.27" y="782.3279"/><ellipse cx="892.5499" cy="803.672" fill="#EB937F" rx="10" ry="10" style="stroke:#181818;stroke-width:1;"/><path d="M895.378,808.172 L890.2061,808.172 L890.2061,799.2345 L895.378,799.2345 L895.378,800.547 L891.6749,800.547 L891.6749,802.8595 L895.1592,802.8595 L895.1592,804.1564 L891.6749,804.1564 L891.6749,806.8439 L895.378,806.8439 L895.378,808.172 Z " fill="#000000"/><text fill="#7D3C98" font-family="DejaVu Sans" font-size="12" font-style="italic" lengthAdjust="spacing" textLength="39.2163" x="925.4844" y="800.156">&#171;Flags&#187;</text><text fill="#4A5568" font-family="'DejaVu Sans'" font-size="12" lengthAdjust="spacing" textLength="78.5166" x="905.8343" y="816.5001">CollisionLayer</text><line style="stroke:#34495E;stroke-width:0.5;" x1="878.27" x2="987.6307" y1="825.0161" y2="825.0161"/><text fill="#4A5568" font-family="'DejaVu Sans'" font-size="12" lengthAdjust="spacing" textLength="30.5642" x="883.27" y="841.8442">None</text><text fill="#4A5568" font-family="'DejaVu Sans'" font-size="12" lengthAdjust="spacing" textLength="34.9323" x="883.27" y="858.1883">Player</text><text fill="#4A5568" font-family="'DejaVu Sans'" font-size="12" lengthAdjust="spacing" textLength="70.1645" x="883.27" y="874.5325">PlayerAttack</text><text fill="#4A5568" font-family="'DejaVu Sans'" font-size="12" lengthAdjust="spacing" textLength="38.1963" x="883.27" y="890.8766">Enemy</text><text fill="#4A5568" font-family="'DejaVu Sans'" font-size="12" lengthAdjust="spacing" textLength="40.3323" x="883.27" y="907.2207">Hazard</text><text fill="#4A5568" font-family="'DejaVu Sans'" font-size="12" lengthAdjust="spacing" textLength="40.5963" x="883.27" y="923.5648">Terrain</text><text fill="#4A5568" font-family="'DejaVu Sans'" font-size="12" lengthAdjust="spacing" textLength="68.3405" x="883.27" y="939.9089">Interactable</text><text fill="#4A5568" font-family="'DejaVu Sans'" font-size="12" lengthAdjust="spacing" textLength="87.3246" x="883.27" y="956.253">PlayerProjectile</text><text fill="#4A5568" font-family="'DejaVu Sans'" font-size="12" lengthAdjust="spacing" textLength="90.5887" x="883.27" y="972.5971">EnemyProjectile</text><text fill="#4A5568" font-family="'DejaVu Sans'" font-size="12" lengthAdjust="spacing" textLength="37.3203" x="883.27" y="988.9413">Pickup</text><text fill="#4A5568" font-family="'DejaVu Sans'" font-size="12" lengthAdjust="spacing" textLength="97.2367" x="883.27" y="1005.2854">BreakableTerrain</text><text fill="#4A5568" font-family="'DejaVu Sans'" font-size="12" lengthAdjust="spacing" textLength="99.3607" x="883.27" y="1021.6295">BossArenaBarrier</text><line style="stroke:#34495E;stroke-width:0.5;" x1="878.27" x2="987.6307" y1="1029.1455" y2="1029.1455"/></g><g class="entity" data-qualified-name="GMN26" data-source-line="87" id="ent0027"><path d="M1023.82,875.0479 L1023.82,944.4244 A3,3 0 0 0 1026.82,947.4244 L1275.0896,947.4244 A3,3 0 0 0 1278.0896,944.4244 L1278.0896,882.0479 L1268.0896,872.0479 L1129.04,872.0479 L1008.63,704.5279 L1121.04,872.0479 L1026.82,872.0479 A3,3 0 0 0 1023.82,875.0479" fill="#FEFFDD" style="stroke:#181818;stroke-width:0.5;"/><path d="M1268.0896,872.0479 L1268.0896,880.5479 A1.5,1.5 0 0 0 1269.5896,882.0479 L1278.0896,882.0479 L1268.0896,872.0479" fill="#FEFFDD" style="stroke:#181818;stroke-width:0.5;"/><text fill="#000000" font-family="'DejaVu Sans'" font-size="12" lengthAdjust="spacing" textLength="105.1807" x="1029.82" y="889.876">ShouldCollide(a,b):</text><text fill="#000000" font-family="'DejaVu Sans'" font-size="12" lengthAdjust="spacing" textLength="233.2696" x="1029.82" y="906.2201">layerA = GetLayer(a); layerB = GetLayer(b)</text><text fill="#000000" font-family="'DejaVu Sans'" font-size="12" lengthAdjust="spacing" textLength="205.1054" x="1029.82" y="922.5642">return (_matrix[layerA] &amp; layerB) != 0</text><text fill="#000000" font-family="'DejaVu Sans'" font-size="12" lengthAdjust="spacing" textLength="209.3775" x="1029.82" y="938.9083">i.e. a bitmask test on the Flags enum.</text></g><!--link CollisionSystem to CollisionHandler--><g class="link" data-entity-1="ent0003" data-entity-2="ent0004" data-link-type="composition" data-source-line="70" id="lnk12"><path codeLine="70" d="M393.3115,162.4795 C356.5315,177.7895 329.51,193.8479 299.95,221.1379 C234.59,281.4679 195.01,372.444 173.86,432.944" fill="none" id="CollisionSystem-CollisionHandler" style="stroke:#34495E;stroke-width:1;"/><polygon fill="#34495E" points="404.39,157.8679,397.3136,156.4808,393.3115,162.4795,400.3879,163.8665,404.39,157.8679" style="stroke:#34495E;stroke-width:1;"/><polygon fill="#34495E" points="171.88,438.6079,178.6259,431.4321,173.53,433.888,171.0741,428.7921,171.88,438.6079" style="stroke:#34495E;stroke-width:1;"/><text fill="#000000" font-family="'DejaVu Sans'" font-size="12" lengthAdjust="spacing" textLength="6.864" x="167.72" y="427.2621">1</text></g><!--link CollisionSystem to CollisionDetector--><g class="link" data-entity-1="ent0003" data-entity-2="ent0005" data-link-type="dependency" data-source-line="71" id="lnk13"><path codeLine="71" d="M412.57,191.3279 C392.22,208.6879 373.62,229.0279 360.95,252.1379 C297.6,367.6479 309.9857,525.9848 320.0457,598.5148" fill="none" id="CollisionSystem-to-CollisionDetector" style="stroke:#34495E;stroke-width:1;stroke-dasharray:7,7;"/><polygon fill="#34495E" points="320.87,604.4579,323.5956,594.9937,320.1831,599.5053,315.6715,596.0928,320.87,604.4579" style="stroke:#34495E;stroke-width:1;"/></g><!--link CollisionSystem to CollisionGroupBuilder--><g class="link" data-entity-1="ent0003" data-entity-2="ent0006" data-link-type="dependency" data-source-line="72" id="lnk14"><path codeLine="72" d="M653.93,191.6179 C674.09,208.8979 692.47,229.1379 704.95,252.1379 C740.26,317.1779 736.7317,400.9527 730.6217,450.6827" fill="none" id="CollisionSystem-to-CollisionGroupBuilder" style="stroke:#34495E;stroke-width:1;stroke-dasharray:7,7;"/><polygon fill="#34495E" points="729.89,456.6379,734.9577,448.1929,730.4997,451.6752,727.0174,447.2173,729.89,456.6379" style="stroke:#34495E;stroke-width:1;"/></g><!--link CollisionSystem to CollisionLayerMatrix--><g class="link" data-entity-1="ent0003" data-entity-2="ent0007" data-link-type="dependency" data-source-line="73" id="lnk15"><path codeLine="73" d="M661.43,189.5379 C678.07,199.6479 694.63,210.3179 709.95,221.1379 C837.47,311.1779 911.3753,481.1227 944.3853,574.2427" fill="none" id="CollisionSystem-to-CollisionLayerMatrix" style="stroke:#34495E;stroke-width:1;stroke-dasharray:7,7;"/><polygon fill="#34495E" points="946.39,579.8979,947.1531,570.0787,944.7194,575.1853,939.6128,572.7516,946.39,579.8979" style="stroke:#34495E;stroke-width:1;"/></g><!--link CollisionSystem to CollisionManager--><g class="link" data-entity-1="ent0003" data-entity-2="ent0008" data-link-type="dependency" data-source-line="74" id="lnk16"><path codeLine="74" d="M532.95,191.5879 C532.95,211.0179 532.95,226.1479 532.95,245.9079" fill="none" id="CollisionSystem-to-CollisionManager" style="stroke:#34495E;stroke-width:1;stroke-dasharray:7,7;"/><polygon fill="#34495E" points="532.95,251.9079,536.95,242.9079,532.95,246.9079,528.95,242.9079,532.95,251.9079" style="stroke:#34495E;stroke-width:1;"/></g><!--link CollisionDetector to ICollidable--><g class="link" data-entity-1="ent0005" data-entity-2="ent0002" data-link-type="dependency" data-source-line="76" id="lnk17"><path codeLine="76" d="M327.96,680.2879 C330.14,702.7379 335.81,731.0679 349.95,752.3279 C384.49,804.2879 437.4254,841.108 486.1154,867.508" fill="none" id="CollisionDetector-to-ICollidable" style="stroke:#34495E;stroke-width:1;stroke-dasharray:7,7;"/><polygon fill="#34495E" points="491.39,870.3679,485.3848,862.5617,486.9945,867.9847,481.5716,869.5944,491.39,870.3679" style="stroke:#34495E;stroke-width:1;"/><text fill="#000000" font-family="'DejaVu Sans'" font-size="12" lengthAdjust="spacing" textLength="104.7607" x="350.95" y="748.156">reads GetBounds()</text></g><!--link CollisionDetector to CollisionSide--><g class="link" data-entity-1="ent0005" data-entity-2="ent0010" data-link-type="dependency" data-source-line="77" id="lnk18"><path codeLine="77" d="M292,679.8879 C278.51,695.6279 263.96,714.8679 253.95,734.3279 C236.05,769.1579 225.2874,805.5043 217.5974,839.6743" fill="none" id="CollisionDetector-to-CollisionSide" style="stroke:#34495E;stroke-width:1;stroke-dasharray:7,7;"/><polygon fill="#34495E" points="216.28,845.5279,222.1584,837.6258,217.3778,840.6499,214.3536,835.8693,216.28,845.5279" style="stroke:#34495E;stroke-width:1;"/><text fill="#000000" font-family="'DejaVu Sans'" font-size="12" lengthAdjust="spacing" textLength="41.5923" x="254.95" y="748.156">returns</text></g><!--link CollisionGroupBuilder to ICollidable--><g class="link" data-entity-1="ent0006" data-entity-2="ent0002" data-link-type="dependency" data-source-line="78" id="lnk19"><path codeLine="78" d="M602.77,512.9979 C563.02,525.1079 522.94,545.5979 498.95,580.2679 C440.78,664.3079 494.5705,781.2726 536.7005,850.4926" fill="none" id="CollisionGroupBuilder-to-ICollidable" style="stroke:#34495E;stroke-width:1;stroke-dasharray:7,7;"/><polygon fill="#34495E" points="539.82,855.6179,538.5577,845.8503,537.2204,851.3468,531.7239,850.0096,539.82,855.6179" style="stroke:#34495E;stroke-width:1;"/><text fill="#000000" font-family="'DejaVu Sans'" font-size="12" lengthAdjust="spacing" textLength="46.8364" x="499.95" y="647.126">filters to</text></g><!--link CollisionHandler to CollisionSide--><g class="link" data-entity-1="ent0004" data-entity-2="ent0010" data-link-type="dependency" data-source-line="79" id="lnk20"><path codeLine="79" d="M158.25,550.6379 C161.06,592.7979 165.65,652.3479 171.95,704.3279 C177.71,751.7879 185.3613,799.1968 192.3713,839.4768" fill="none" id="CollisionHandler-to-CollisionSide" style="stroke:#34495E;stroke-width:1;stroke-dasharray:7,7;"/><polygon fill="#34495E" points="193.4,845.3879,195.7977,835.8354,192.5427,840.462,187.9161,837.207,193.4,845.3879" style="stroke:#34495E;stroke-width:1;"/><text fill="#000000" font-family="'DejaVu Sans'" font-size="12" lengthAdjust="spacing" textLength="50.0644" x="172.95" y="647.126">keyed by</text></g><!--link CollisionLayerMatrix to CollisionLayer--><g class="link" data-entity-1="ent0007" data-entity-2="ent0011" data-link-type="dependency" data-source-line="80" id="lnk21"><path codeLine="80" d="M958.34,704.5279 C955.45,727.7279 952.7885,749.1235 949.4385,776.1335" fill="none" id="CollisionLayerMatrix-to-CollisionLayer" style="stroke:#34495E;stroke-width:1;stroke-dasharray:7,7;"/><polygon fill="#34495E" points="948.7,782.0879,953.7773,773.6487,949.3154,777.1259,945.8382,772.664,948.7,782.0879" style="stroke:#34495E;stroke-width:1;"/><text fill="#000000" font-family="'DejaVu Sans'" font-size="12" lengthAdjust="spacing" textLength="31.0802" x="955.33" y="748.156">maps</text></g><!--link CollisionLayerMatrix to ICollidable--><g class="link" data-entity-1="ent0007" data-entity-2="ent0002" data-link-type="dependency" data-source-line="81" id="lnk22"><path codeLine="81" d="M875.99,704.5279 C808.95,750.1579 723.2701,808.472 659.2101,852.072" fill="none" id="CollisionLayerMatrix-to-ICollidable" style="stroke:#34495E;stroke-width:1;stroke-dasharray:7,7;"/><polygon fill="#34495E" points="654.25,855.4479,663.9408,853.6908,658.3835,852.6346,659.4396,847.0772,654.25,855.4479" style="stroke:#34495E;stroke-width:1;"/><text fill="#000000" font-family="'DejaVu Sans'" font-size="12" lengthAdjust="spacing" textLength="49.9204" x="829.67" y="748.156">classifies</text></g><!--link CollisionManager to CollisionDetector--><g class="link" data-entity-1="ent0008" data-entity-2="ent0005" data-link-type="dependency" data-source-line="82" id="lnk23"><path codeLine="82" d="M481.23,409.2879 C439.76,471.6579 386.7129,551.4321 354.8529,599.3321" fill="none" id="CollisionManager-to-CollisionDetector" style="stroke:#34495E;stroke-width:1;stroke-dasharray:7,7;"/><polygon fill="#34495E" points="351.53,604.3279,359.8449,599.0494,354.2991,600.1647,353.1838,594.6189,351.53,604.3279" style="stroke:#34495E;stroke-width:1;"/></g><!--link CollisionManager to CollisionLayerMatrix--><g class="link" data-entity-1="ent0008" data-entity-2="ent0007" data-link-type="dependency" data-source-line="83" id="lnk24"><path codeLine="83" d="M531.21,409.1879 C534.52,456.7279 547.23,515.0179 585.95,550.2679 C620.32,581.5579 747.82,569.1479 792.95,580.2679 C798.67,581.6779 798.689,581.5915 804.519,583.2115" fill="none" id="CollisionManager-to-CollisionLayerMatrix" style="stroke:#34495E;stroke-width:1;stroke-dasharray:7,7;"/><polygon fill="#34495E" points="810.3,584.8179,802.6995,578.5544,805.4825,583.4793,800.5576,586.2623,810.3,584.8179" style="stroke:#34495E;stroke-width:1;"/></g><!--link DebugRenderer to ICollidable--><g class="link" data-entity-1="ent0009" data-entity-2="ent0002" data-link-type="dependency" data-source-line="84" id="lnk25"><path codeLine="84" d="M651.15,696.3779 C634.76,742.6679 613.1034,803.8323 596.7134,850.1023" fill="none" id="DebugRenderer-to-ICollidable" style="stroke:#34495E;stroke-width:1;stroke-dasharray:7,7;"/><polygon fill="#34495E" points="594.71,855.7579,601.4855,848.61,596.3795,851.0449,593.9446,845.9388,594.71,855.7579" style="stroke:#34495E;stroke-width:1;"/><text fill="#000000" font-family="'DejaVu Sans'" font-size="12" lengthAdjust="spacing" textLength="34.2482" x="637.86" y="748.156">draws</text></g><?plantuml-src ZLRDSjis4BxpAJOvj5H3gUtLLJGZsQdjQTpnI6elQSO3aYi94GXm0509c_5C7w9Fs2Vf0gGf_bXoV32XvUwt_n_uYij452d2Wx6bm4bUP2Amt0g4IoK4Drn9M1MnAOt53Fxxvr-u5CmOM5bT9BRG60HSMjGRbY3SUfkKnMG-dJRosGo-1a1_Rs2X2faQk80b9fR9hLVSeftDQeLRCqyiFo2fn4g9tjjhj1L2E6fZVFWOF0P1uWDhmbvL8LUUn_2mOp8LgCckKRcfH4yQIQ4rIlkRvDkT9Rtr3gjpxRq77Ovg-HzvoYo6UwyRGIwOtIYTcGXy2HX5IHKnqLyI02Lc7DqhGg17hjMdkwsEGBB3jUQfo-kWU5h7jCGj9rzwBaJOl7hifrhdCSZL5VgAKpsLPBgSXkionyZ_EwR2KnpvoEPURzhgOTGwDoruYcWwZnQpq91v11fDhgJ1Jl1le0ghSHMo2E88dCdfLAxGKbULfiORoonFMiFpjP8yGgNayKRjVhfaXf3NMXNvek0YnVEmD5t7XCrqFGjzavoBLYNyiFLSl6SbwZjcDVyoz30-UdZ8AfrEMxeeKGzrrezojLE5IAjuiAc1MvQ-Dyh7GuH9fqfUraVzaxdqBAxAB4EhopFJTiSasxvGoYKQ9GvuBvolXL39_ZW6JtiIEt5lPFe0xsXTofxz0UKMDwByDeHBpJvJQZsCf99-6yGzxIZD6s_DiWdpp6-wwrXdhpqWFPMiah_XrltmYT3vbAkZ3r8onsaBymWiqqI2JPUV6dA5SR5TegInVg4REsvZzUMTT81fUrZQEqKLgRdLq9Qg-5C4YH9AduhO6JXQghKfUDEt8596MMJT1Qt3-rr9z8VtkAa8TjbGxLhb_hbGrggCOBeeVe0fuLy5svectmQmgdlhEBUM9Nily6tmfnlsDzDLKclKcd7fpxSjncv17DjpXEd9xdcoB-guDRAzGsWZBvGnSxfVs89fpIb0gixtC1wFAR4iLuOxFe0V8SNSzLGcD4xkTT2_qNuOZsVm-kVNmtkihpcPp8RCUbwhJPRdDLkSTrwnveiW69Ayqsj_D5pGLSBe-w1rpv-mwewKiwEF4Mc2vrb_w6V3XNKNf5N1u1fz3d-F9QrEN0RFSlwmC6IIiToSLk-6upUQRwZbmO1dN-ZYishjvdHvOkWxfKKsGI2LHM86jt6WDiz3mU3sYKSN9AtM3DuUhnms-gMIBjhIs7qoLQs2iBuCFrJ67-6xsc04hzx2JwJ89pW11Z6t6JDxi6WiCIdO7O9VVN2qC25oIC457_mF?></g></svg>