<?plantuml 1.2026.2?><svg xmlns="http://www.w3.org/2000/svg" xmlns:xlink="http://www.w3.org/1999/xlink" contentStyleType="text/css" data-diagram-type="STATE" height="2317px" preserveAspectRatio="none" style="width:1104px;height:2317px;background:#FFFFFF;" version="1.1" viewBox="0 0 1104 2317" width="1104px" zoomAndPan="magnify"><title>MantisLord &#8212; State Machine (one lord)</title><defs/><g><g class="title" data-source-line="2"><text fill="#000000" font-family="'DejaVu Sans'" font-size="14" font-weight="bold" lengthAdjust="spacing" textLength="270.493" x="410.1619" y="24.9659">MantisLord &#8212; State Machine (one lord)</text></g><g class="entity" data-qualified-name="N" data-source-line="5" id="ent0002"><path d="M288.38,49.0679 L288.38,102.1003 A3,3 0 0 0 291.38,105.1003 L582.6819,105.1003 A3,3 0 0 0 585.6819,102.1003 L585.6819,56.0679 L575.6819,46.0679 L291.38,46.0679 A3,3 0 0 0 288.38,49.0679" fill="#FEFFDD" style="stroke:#181818;stroke-width:0.5;"/><path d="M575.6819,46.0679 L575.6819,54.5679 A1.5,1.5 0 0 0 577.1819,56.0679 L585.6819,56.0679 L575.6819,46.0679" fill="#FEFFDD" style="stroke:#181818;stroke-width:1;"/><text fill="#000000" font-family="'DejaVu Sans'" font-size="12" lengthAdjust="spacing" textLength="219.4336" x="294.38" y="63.896">Unlabelled transitions inside the attack</text><text fill="#000000" font-family="'DejaVu Sans'" font-size="12" lengthAdjust="spacing" textLength="261.4339" x="294.38" y="80.2401">composites fire on "sprite animation finished".</text><text fill="#000000" font-family="'DejaVu Sans'" font-size="12" lengthAdjust="spacing" textLength="276.3019" x="294.38" y="96.5842">GracePeriod is the hub that picks the next attack.</text></g><g class="entity" data-qualified-name="GracePeriod" id="ent0003"><rect fill="#F7F9FC" height="52.6882" rx="3" ry="3" style="stroke:#2471A3;stroke-width:0.5;" width="186.3572" x="537.86" y="566.1079"/><line style="stroke:#2471A3;stroke-width:0.5;" x1="537.86" x2="724.2172" y1="592.452" y2="592.452"/><text fill="#1A2533" font-family="'DejaVu Sans'" font-size="12" lengthAdjust="spacing" textLength="69.6725" x="596.2023" y="583.936">GracePeriod</text><text fill="#1A2533" font-family="'DejaVu Sans'" font-size="12" lengthAdjust="spacing" textLength="166.3572" x="542.86" y="610.2801">entry / StartAttackCooldown()</text></g><path d="M158.29,732.1279 L335.7726,732.1279 A3,3 0 0 1 338.7726,735.1279 L338.7726,758.472 L155.29,758.472 L155.29,735.1279 A3,3 0 0 1 158.29,732.1279" fill="#F7F9FC"/><rect fill="none" height="684.3741" rx="3" ry="3" style="stroke:#2471A3;stroke-width:0.5;" width="183.4826" x="155.29" y="732.1279"/><line style="stroke:#2471A3;stroke-width:0.5;" x1="155.29" x2="338.7726" y1="758.472" y2="758.472"/><text fill="#1A2533" font-family="'DejaVu Sans'" font-size="12" lengthAdjust="spacing" textLength="59.3164" x="217.3731" y="749.956">WallAttack</text><g class="entity" data-qualified-name="WallAttack.Throw" id="ent0005"><rect fill="#F7F9FC" height="69.0323" rx="3" ry="3" style="stroke:#2471A3;stroke-width:0.5;" width="142.1368" x="167.29" y="1104.472"/><line style="stroke:#2471A3;stroke-width:0.5;" x1="167.29" x2="309.4268" y1="1130.8161" y2="1130.8161"/><text fill="#1A2533" font-family="'DejaVu Sans'" font-size="12" lengthAdjust="spacing" textLength="35.7363" x="220.4903" y="1122.3001">Throw</text><text fill="#1A2533" font-family="'DejaVu Sans'" font-size="12" lengthAdjust="spacing" textLength="120.6249" x="172.29" y="1148.6442">entry / fire projectiles</text><text fill="#1A2533" font-family="'DejaVu Sans'" font-size="12" lengthAdjust="spacing" textLength="122.1368" x="172.29" y="1164.9883">(alternating low/high)</text></g><g class="start_entity" data-qualified-name="WallAttack..start.WallAttack" data-source-line="22" id="ent0013"><ellipse cx="238.36" cy="779.472" fill="#222222" rx="10" ry="10" style="stroke:#222222;stroke-width:1;"/></g><g class="entity" data-qualified-name="WallAttack.WallStart" id="ent0014"><rect fill="#F7F9FC" height="50" rx="3" ry="3" style="stroke:#2471A3;stroke-width:0.5;" width="71.0244" x="202.85" y="843.472"/><line style="stroke:#2471A3;stroke-width:0.5;" x1="202.85" x2="273.8744" y1="869.8161" y2="869.8161"/><text fill="#1A2533" font-family="'DejaVu Sans'" font-size="12" lengthAdjust="spacing" textLength="51.0244" x="212.85" y="861.3001">WallStart</text></g><g class="entity" data-qualified-name="WallAttack.WallArrive" id="ent0016"><rect fill="#F7F9FC" height="50" rx="3" ry="3" style="stroke:#2471A3;stroke-width:0.5;" width="77.6244" x="199.55" y="930.472"/><line style="stroke:#2471A3;stroke-width:0.5;" x1="199.55" x2="277.1744" y1="956.8161" y2="956.8161"/><text fill="#1A2533" font-family="'DejaVu Sans'" font-size="12" lengthAdjust="spacing" textLength="57.6244" x="209.55" y="948.3001">WallArrive</text></g><g class="entity" data-qualified-name="WallAttack.WallReady" id="ent0018"><rect fill="#F7F9FC" height="50" rx="3" ry="3" style="stroke:#2471A3;stroke-width:0.5;" width="78.5484" x="199.08" y="1017.472"/><line style="stroke:#2471A3;stroke-width:0.5;" x1="199.08" x2="277.6284" y1="1043.8161" y2="1043.8161"/><text fill="#1A2533" font-family="'DejaVu Sans'" font-size="12" lengthAdjust="spacing" textLength="58.5484" x="209.08" y="1035.3001">WallReady</text></g><g class="entity" data-qualified-name="WallAttack.WallLeave1" id="ent0021"><rect fill="#F7F9FC" height="50" rx="3" ry="3" style="stroke:#2471A3;stroke-width:0.5;" width="83.6004" x="196.56" y="1210.502"/><line style="stroke:#2471A3;stroke-width:0.5;" x1="196.56" x2="280.1604" y1="1236.8461" y2="1236.8461"/><text fill="#1A2533" font-family="'DejaVu Sans'" font-size="12" lengthAdjust="spacing" textLength="63.6004" x="206.56" y="1228.3301">WallLeave1</text></g><g class="entity" data-qualified-name="WallAttack.WallLeave2" id="ent0023"><rect fill="#F7F9FC" height="50" rx="3" ry="3" style="stroke:#2471A3;stroke-width:0.5;" width="83.6004" x="196.56" y="1297.502"/><line style="stroke:#2471A3;stroke-width:0.5;" x1="196.56" x2="280.1604" y1="1323.8461" y2="1323.8461"/><text fill="#1A2533" font-family="'DejaVu Sans'" font-size="12" lengthAdjust="spacing" textLength="63.6004" x="206.56" y="1315.3301">WallLeave2</text></g><g class="end_entity" data-qualified-name="WallAttack..end.WallAttack" data-source-line="29" id="ent0025"><ellipse cx="238.36" cy="1395.502" fill="none" rx="11" ry="11" style="stroke:#222222;stroke-width:1;"/><ellipse cx="238.36" cy="1395.502" fill="#222222" rx="6" ry="6" style="stroke:#222222;stroke-width:1;"/></g><!--link *start*WallAttack to WallStart--><g class="link" data-entity-1="ent0013" data-entity-2="ent0014" data-link-type="dependency" data-source-line="22" id="lnk15"><path d="M238.36,789.782 C238.36,802.402 238.36,819.412 238.36,837.122" fill="none" id="*start*WallAttack-to-WallStart" style="stroke:#34495E;stroke-width:1;"/><polygon fill="#34495E" points="238.36,843.122,242.36,834.122,238.36,838.122,234.36,834.122,238.36,843.122" style="stroke:#34495E;stroke-width:1;"/><text fill="#000000" font-family="'DejaVu Sans'" font-size="12" lengthAdjust="spacing" textLength="89.4126" x="239.36" y="821.3001">play land sound</text></g><!--link WallStart to WallArrive--><g class="link" data-entity-1="ent0014" data-entity-2="ent0016" data-link-type="dependency" data-source-line="23" id="lnk17"><path d="M238.36,893.602 C238.36,904.982 238.36,912.552 238.36,923.982" fill="none" id="WallStart-to-WallArrive" style="stroke:#34495E;stroke-width:1;"/><polygon fill="#34495E" points="238.36,929.982,242.36,920.982,238.36,924.982,234.36,920.982,238.36,929.982" style="stroke:#34495E;stroke-width:1;"/></g><!--link WallArrive to WallReady--><g class="link" data-entity-1="ent0016" data-entity-2="ent0018" data-link-type="dependency" data-source-line="24" id="lnk19"><path d="M238.36,980.602 C238.36,991.982 238.36,999.552 238.36,1010.982" fill="none" id="WallArrive-to-WallReady" style="stroke:#34495E;stroke-width:1;"/><polygon fill="#34495E" points="238.36,1016.982,242.36,1007.982,238.36,1011.982,234.36,1007.982,238.36,1016.982" style="stroke:#34495E;stroke-width:1;"/></g><!--link WallReady to Throw--><g class="link" data-entity-1="ent0018" data-entity-2="ent0005" data-link-type="dependency" data-source-line="25" id="lnk20"><path d="M238.36,1067.812 C238.36,1078.862 238.36,1086.112 238.36,1098.112" fill="none" id="WallReady-to-Throw" style="stroke:#34495E;stroke-width:1;"/><polygon fill="#34495E" points="238.36,1104.112,242.36,1095.112,238.36,1099.112,234.36,1095.112,238.36,1104.112" style="stroke:#34495E;stroke-width:1;"/></g><!--link Throw to WallLeave1--><g class="link" data-entity-1="ent0005" data-entity-2="ent0021" data-link-type="dependency" data-source-line="27" id="lnk22"><path d="M238.36,1173.842 C238.36,1185.812 238.36,1193.032 238.36,1204.072" fill="none" id="Throw-to-WallLeave1" style="stroke:#34495E;stroke-width:1;"/><polygon fill="#34495E" points="238.36,1210.072,242.36,1201.072,238.36,1205.072,234.36,1201.072,238.36,1210.072" style="stroke:#34495E;stroke-width:1;"/></g><!--link WallLeave1 to WallLeave2--><g class="link" data-entity-1="ent0021" data-entity-2="ent0023" data-link-type="dependency" data-source-line="28" id="lnk24"><path d="M238.36,1260.632 C238.36,1272.022 238.36,1279.582 238.36,1291.012" fill="none" id="WallLeave1-to-WallLeave2" style="stroke:#34495E;stroke-width:1;"/><polygon fill="#34495E" points="238.36,1297.012,242.36,1288.012,238.36,1292.012,234.36,1288.012,238.36,1297.012" style="stroke:#34495E;stroke-width:1;"/></g><!--link WallLeave2 to *end*WallAttack--><g class="link" data-entity-1="ent0023" data-entity-2="ent0025" data-link-type="dependency" data-source-line="29" id="lnk26"><path d="M238.36,1347.932 C238.36,1360.292 238.36,1368.632 238.36,1378.102" fill="none" id="WallLeave2-to-*end*WallAttack" style="stroke:#34495E;stroke-width:1;"/><polygon fill="#34495E" points="238.36,1384.102,242.36,1375.102,238.36,1379.102,234.36,1375.102,238.36,1384.102" style="stroke:#34495E;stroke-width:1;"/></g><path d="M377.03,731.7979 L605.0329,731.7979 A3,3 0 0 1 608.0329,734.7979 L608.0329,758.142 L374.03,758.142 L374.03,734.7979 A3,3 0 0 1 377.03,731.7979" fill="#F7F9FC"/><rect fill="none" height="685.0341" rx="3" ry="3" style="stroke:#2471A3;stroke-width:0.5;" width="234.0029" x="374.03" y="731.7979"/><line style="stroke:#2471A3;stroke-width:0.5;" x1="374.03" x2="608.0329" y1="758.142" y2="758.142"/><text fill="#1A2533" font-family="'DejaVu Sans'" font-size="12" lengthAdjust="spacing" textLength="63.8884" x="459.0873" y="749.626">DashAttack</text><g class="entity" data-qualified-name="DashAttack.Dash" id="ent0007"><rect fill="#F7F9FC" height="52.6882" rx="3" ry="3" style="stroke:#2471A3;stroke-width:0.5;" width="146.2289" x="386.03" y="1121.142"/><line style="stroke:#2471A3;stroke-width:0.5;" x1="386.03" x2="532.2589" y1="1147.4861" y2="1147.4861"/><text fill="#1A2533" font-family="'DejaVu Sans'" font-size="12" lengthAdjust="spacing" textLength="28.6562" x="444.8164" y="1138.9701">Dash</text><text fill="#1A2533" font-family="'DejaVu Sans'" font-size="12" lengthAdjust="spacing" textLength="126.2289" x="391.03" y="1165.3142">do / move horizontally</text></g><g class="start_entity" data-qualified-name="DashAttack..start.DashAttack" data-source-line="34" id="ent0028"><ellipse cx="459.14" cy="779.142" fill="#222222" rx="10" ry="10" style="stroke:#222222;stroke-width:1;"/></g><g class="entity" data-qualified-name="DashAttack.DashStart" id="ent0029"><rect fill="#F7F9FC" height="50" rx="3" ry="3" style="stroke:#2471A3;stroke-width:0.5;" width="75.5964" x="421.35" y="843.142"/><line style="stroke:#2471A3;stroke-width:0.5;" x1="421.35" x2="496.9464" y1="869.4861" y2="869.4861"/><text fill="#1A2533" font-family="'DejaVu Sans'" font-size="12" lengthAdjust="spacing" textLength="55.5964" x="431.35" y="860.9701">DashStart</text></g><g class="entity" data-qualified-name="DashAttack.DashArrive" id="ent0031"><rect fill="#F7F9FC" height="50" rx="3" ry="3" style="stroke:#2471A3;stroke-width:0.5;" width="82.1964" x="418.05" y="930.142"/><line style="stroke:#2471A3;stroke-width:0.5;" x1="418.05" x2="500.2464" y1="956.4861" y2="956.4861"/><text fill="#1A2533" font-family="'DejaVu Sans'" font-size="12" lengthAdjust="spacing" textLength="62.1964" x="428.05" y="947.9701">DashArrive</text></g><g class="entity" data-qualified-name="DashAttack.DashAnticipate" id="ent0033"><rect fill="#F7F9FC" height="50" rx="3" ry="3" style="stroke:#2471A3;stroke-width:0.5;" width="105.2366" x="406.53" y="1017.142"/><line style="stroke:#2471A3;stroke-width:0.5;" x1="406.53" x2="511.7666" y1="1043.4861" y2="1043.4861"/><text fill="#1A2533" font-family="'DejaVu Sans'" font-size="12" lengthAdjust="spacing" textLength="85.2366" x="416.53" y="1034.9701">DashAnticipate</text></g><g class="entity" data-qualified-name="DashAttack.DashRecover" id="ent0036"><rect fill="#F7F9FC" height="50" rx="3" ry="3" style="stroke:#2471A3;stroke-width:0.5;" width="93.7285" x="412.28" y="1210.832"/><line style="stroke:#2471A3;stroke-width:0.5;" x1="412.28" x2="506.0085" y1="1237.1761" y2="1237.1761"/><text fill="#1A2533" font-family="'DejaVu Sans'" font-size="12" lengthAdjust="spacing" textLength="73.7285" x="422.28" y="1228.6601">DashRecover</text></g><g class="entity" data-qualified-name="DashAttack.DashLeave" id="ent0038"><rect fill="#F7F9FC" height="50" rx="3" ry="3" style="stroke:#2471A3;stroke-width:0.5;" width="81.3084" x="418.49" y="1297.832"/><line style="stroke:#2471A3;stroke-width:0.5;" x1="418.49" x2="499.7984" y1="1324.1761" y2="1324.1761"/><text fill="#1A2533" font-family="'DejaVu Sans'" font-size="12" lengthAdjust="spacing" textLength="61.3084" x="428.49" y="1315.6601">DashLeave</text></g><g class="end_entity" data-qualified-name="DashAttack..end.DashAttack" data-source-line="41" id="ent0040"><ellipse cx="459.14" cy="1395.832" fill="none" rx="11" ry="11" style="stroke:#222222;stroke-width:1;"/><ellipse cx="459.14" cy="1395.832" fill="#222222" rx="6" ry="6" style="stroke:#222222;stroke-width:1;"/></g><!--link *start*DashAttack to DashStart--><g class="link" data-entity-1="ent0028" data-entity-2="ent0029" data-link-type="dependency" data-source-line="34" id="lnk30"><path d="M459.14,789.452 C459.14,802.082 459.14,819.082 459.14,836.792" fill="none" id="*start*DashAttack-to-DashStart" style="stroke:#34495E;stroke-width:1;"/><polygon fill="#34495E" points="459.14,842.792,463.14,833.792,459.14,837.792,455.14,833.792,459.14,842.792" style="stroke:#34495E;stroke-width:1;"/><text fill="#000000" font-family="'DejaVu Sans'" font-size="12" lengthAdjust="spacing" textLength="89.4126" x="460.14" y="820.9701">play land sound</text></g><!--link DashStart to DashArrive--><g class="link" data-entity-1="ent0029" data-entity-2="ent0031" data-link-type="dependency" data-source-line="35" id="lnk32"><path d="M459.14,893.272 C459.14,904.662 459.14,912.222 459.14,923.662" fill="none" id="DashStart-to-DashArrive" style="stroke:#34495E;stroke-width:1;"/><polygon fill="#34495E" points="459.14,929.662,463.14,920.662,459.14,924.662,455.14,920.662,459.14,929.662" style="stroke:#34495E;stroke-width:1;"/></g><!--link DashArrive to DashAnticipate--><g class="link" data-entity-1="ent0031" data-entity-2="ent0033" data-link-type="dependency" data-source-line="36" id="lnk34"><path d="M459.14,980.272 C459.14,991.662 459.14,999.222 459.14,1010.662" fill="none" id="DashArrive-to-DashAnticipate" style="stroke:#34495E;stroke-width:1;"/><polygon fill="#34495E" points="459.14,1016.662,463.14,1007.662,459.14,1011.662,455.14,1007.662,459.14,1016.662" style="stroke:#34495E;stroke-width:1;"/></g><!--link DashAnticipate to Dash--><g class="link" data-entity-1="ent0033" data-entity-2="ent0007" data-link-type="dependency" data-source-line="37" id="lnk35"><path d="M459.14,1067.632 C459.14,1083.632 459.14,1098.482 459.14,1114.732" fill="none" id="DashAnticipate-to-Dash" style="stroke:#34495E;stroke-width:1;"/><polygon fill="#34495E" points="459.14,1120.732,463.14,1111.732,459.14,1115.732,455.14,1111.732,459.14,1120.732" style="stroke:#34495E;stroke-width:1;"/><text fill="#000000" font-family="'DejaVu Sans'" font-size="12" lengthAdjust="spacing" textLength="137.8929" x="460.14" y="1098.9701">activate contact damage</text></g><!--link Dash to DashRecover--><g class="link" data-entity-1="ent0007" data-entity-2="ent0036" data-link-type="dependency" data-source-line="39" id="lnk37"><path d="M459.14,1173.922 C459.14,1185.472 459.14,1193.052 459.14,1204.462" fill="none" id="Dash-to-DashRecover" style="stroke:#34495E;stroke-width:1;"/><polygon fill="#34495E" points="459.14,1210.462,463.14,1201.462,459.14,1205.462,455.14,1201.462,459.14,1210.462" style="stroke:#34495E;stroke-width:1;"/></g><!--link DashRecover to DashLeave--><g class="link" data-entity-1="ent0036" data-entity-2="ent0038" data-link-type="dependency" data-source-line="40" id="lnk39"><path d="M459.14,1260.962 C459.14,1272.352 459.14,1279.912 459.14,1291.342" fill="none" id="DashRecover-to-DashLeave" style="stroke:#34495E;stroke-width:1;"/><polygon fill="#34495E" points="459.14,1297.342,463.14,1288.342,459.14,1292.342,455.14,1288.342,459.14,1297.342" style="stroke:#34495E;stroke-width:1;"/></g><!--link DashLeave to *end*DashAttack--><g class="link" data-entity-1="ent0038" data-entity-2="ent0040" data-link-type="dependency" data-source-line="41" id="lnk41"><path d="M459.14,1348.262 C459.14,1360.622 459.14,1368.962 459.14,1378.432" fill="none" id="DashLeave-to-*end*DashAttack" style="stroke:#34495E;stroke-width:1;"/><polygon fill="#34495E" points="459.14,1384.432,463.14,1375.432,459.14,1379.432,455.14,1375.432,459.14,1384.432" style="stroke:#34495E;stroke-width:1;"/></g><path d="M645.8,696.7979 L898.2729,696.7979 A3,3 0 0 1 901.2729,699.7979 L901.2729,723.142 L642.8,723.142 L642.8,699.7979 A3,3 0 0 1 645.8,696.7979" fill="#F7F9FC"/><rect fill="none" height="755.0341" rx="3" ry="3" style="stroke:#2471A3;stroke-width:0.5;" width="258.4729" x="642.8" y="696.7979"/><line style="stroke:#2471A3;stroke-width:0.5;" x1="642.8" x2="901.2729" y1="723.142" y2="723.142"/><text fill="#1A2533" font-family="'DejaVu Sans'" font-size="12" lengthAdjust="spacing" textLength="69.0245" x="737.5242" y="714.626">DStabAttack</text><g class="entity" data-qualified-name="DStabAttack.DStab" id="ent0009"><rect fill="#F7F9FC" height="52.6882" rx="3" ry="3" style="stroke:#2471A3;stroke-width:0.5;" width="226.7255" x="654.8" y="1069.142"/><line style="stroke:#2471A3;stroke-width:0.5;" x1="654.8" x2="881.5255" y1="1095.4861" y2="1095.4861"/><text fill="#1A2533" font-family="'DejaVu Sans'" font-size="12" lengthAdjust="spacing" textLength="33.7922" x="751.2666" y="1086.9701">DStab</text><text fill="#1A2533" font-family="'DejaVu Sans'" font-size="12" lengthAdjust="spacing" textLength="206.7255" x="659.8" y="1113.3142">do / move down at MantisStabSpeed</text></g><g class="start_entity" data-qualified-name="DStabAttack..start.DStabAttack" data-source-line="46" id="ent0043"><ellipse cx="768.16" cy="744.142" fill="#222222" rx="10" ry="10" style="stroke:#222222;stroke-width:1;"/></g><g class="entity" data-qualified-name="DStabAttack.DStabStart" id="ent0044"><rect fill="#F7F9FC" height="50" rx="3" ry="3" style="stroke:#2471A3;stroke-width:0.5;" width="80.7324" x="727.8" y="808.142"/><line style="stroke:#2471A3;stroke-width:0.5;" x1="727.8" x2="808.5324" y1="834.4861" y2="834.4861"/><text fill="#1A2533" font-family="'DejaVu Sans'" font-size="12" lengthAdjust="spacing" textLength="60.7324" x="737.8" y="825.9701">DStabStart</text></g><g class="entity" data-qualified-name="DStabAttack.DStabArrive" id="ent0046"><rect fill="#F7F9FC" height="50" rx="3" ry="3" style="stroke:#2471A3;stroke-width:0.5;" width="87.3325" x="724.5" y="895.142"/><line style="stroke:#2471A3;stroke-width:0.5;" x1="724.5" x2="811.8325" y1="921.4861" y2="921.4861"/><text fill="#1A2533" font-family="'DejaVu Sans'" font-size="12" lengthAdjust="spacing" textLength="67.3325" x="734.5" y="912.9701">DStabArrive</text></g><g class="entity" data-qualified-name="DStabAttack.DStabOffset" id="ent0048"><rect fill="#F7F9FC" height="50" rx="3" ry="3" style="stroke:#2471A3;stroke-width:0.5;" width="88.2685" x="724.03" y="982.142"/><line style="stroke:#2471A3;stroke-width:0.5;" x1="724.03" x2="812.2985" y1="1008.4861" y2="1008.4861"/><text fill="#1A2533" font-family="'DejaVu Sans'" font-size="12" lengthAdjust="spacing" textLength="68.2685" x="734.03" y="999.9701">DStabOffset</text></g><g class="entity" data-qualified-name="DStabAttack.DStabLandOffset" id="ent0051"><rect fill="#F7F9FC" height="50" rx="3" ry="3" style="stroke:#2471A3;stroke-width:0.5;" width="116.0847" x="710.12" y="1158.832"/><line style="stroke:#2471A3;stroke-width:0.5;" x1="710.12" x2="826.2047" y1="1185.1761" y2="1185.1761"/><text fill="#1A2533" font-family="'DejaVu Sans'" font-size="12" lengthAdjust="spacing" textLength="96.0847" x="720.12" y="1176.6601">DStabLandOffset</text></g><g class="entity" data-qualified-name="DStabAttack.DStabLand" id="ent0053"><rect fill="#F7F9FC" height="50" rx="3" ry="3" style="stroke:#2471A3;stroke-width:0.5;" width="81.6084" x="727.36" y="1245.832"/><line style="stroke:#2471A3;stroke-width:0.5;" x1="727.36" x2="808.9684" y1="1272.1761" y2="1272.1761"/><text fill="#1A2533" font-family="'DejaVu Sans'" font-size="12" lengthAdjust="spacing" textLength="61.6084" x="737.36" y="1263.6601">DStabLand</text></g><g class="entity" data-qualified-name="DStabAttack.DStabLeave" id="ent0055"><rect fill="#F7F9FC" height="50" rx="3" ry="3" style="stroke:#2471A3;stroke-width:0.5;" width="86.4444" x="724.94" y="1332.832"/><line style="stroke:#2471A3;stroke-width:0.5;" x1="724.94" x2="811.3844" y1="1359.1761" y2="1359.1761"/><text fill="#1A2533" font-family="'DejaVu Sans'" font-size="12" lengthAdjust="spacing" textLength="66.4444" x="734.94" y="1350.6601">DStabLeave</text></g><g class="end_entity" data-qualified-name="DStabAttack..end.DStabAttack" data-source-line="54" id="ent0057"><ellipse cx="768.16" cy="1430.832" fill="none" rx="11" ry="11" style="stroke:#222222;stroke-width:1;"/><ellipse cx="768.16" cy="1430.832" fill="#222222" rx="6" ry="6" style="stroke:#222222;stroke-width:1;"/></g><!--link *start*DStabAttack to DStabStart--><g class="link" data-entity-1="ent0043" data-entity-2="ent0044" data-link-type="dependency" data-source-line="46" id="lnk45"><path d="M768.16,754.452 C768.16,767.082 768.16,784.082 768.16,801.792" fill="none" id="*start*DStabAttack-to-DStabStart" style="stroke:#34495E;stroke-width:1;"/><polygon fill="#34495E" points="768.16,807.792,772.16,798.792,768.16,802.792,764.16,798.792,768.16,807.792" style="stroke:#34495E;stroke-width:1;"/><text fill="#000000" font-family="'DejaVu Sans'" font-size="12" lengthAdjust="spacing" textLength="122.1129" x="769.16" y="785.9701">position above knight</text></g><!--link DStabStart to DStabArrive--><g class="link" data-entity-1="ent0044" data-entity-2="ent0046" data-link-type="dependency" data-source-line="47" id="lnk47"><path d="M768.16,858.272 C768.16,869.662 768.16,877.222 768.16,888.662" fill="none" id="DStabStart-to-DStabArrive" style="stroke:#34495E;stroke-width:1;"/><polygon fill="#34495E" points="768.16,894.662,772.16,885.662,768.16,889.662,764.16,885.662,768.16,894.662" style="stroke:#34495E;stroke-width:1;"/></g><!--link DStabArrive to DStabOffset--><g class="link" data-entity-1="ent0046" data-entity-2="ent0048" data-link-type="dependency" data-source-line="48" id="lnk49"><path d="M768.16,945.272 C768.16,956.662 768.16,964.222 768.16,975.662" fill="none" id="DStabArrive-to-DStabOffset" style="stroke:#34495E;stroke-width:1;"/><polygon fill="#34495E" points="768.16,981.662,772.16,972.662,768.16,976.662,764.16,972.662,768.16,981.662" style="stroke:#34495E;stroke-width:1;"/></g><!--link DStabOffset to DStab--><g class="link" data-entity-1="ent0048" data-entity-2="ent0009" data-link-type="dependency" data-source-line="49" id="lnk50"><path d="M768.16,1032.192 C768.16,1043.572 768.16,1051.172 768.16,1062.752" fill="none" id="DStabOffset-to-DStab" style="stroke:#34495E;stroke-width:1;"/><polygon fill="#34495E" points="768.16,1068.752,772.16,1059.752,768.16,1063.752,764.16,1059.752,768.16,1068.752" style="stroke:#34495E;stroke-width:1;"/></g><!--link DStab to DStabLandOffset--><g class="link" data-entity-1="ent0009" data-entity-2="ent0051" data-link-type="dependency" data-source-line="51" id="lnk52"><path d="M768.16,1121.932 C768.16,1133.472 768.16,1141.052 768.16,1152.462" fill="none" id="DStab-to-DStabLandOffset" style="stroke:#34495E;stroke-width:1;"/><polygon fill="#34495E" points="768.16,1158.462,772.16,1149.462,768.16,1153.462,764.16,1149.462,768.16,1158.462" style="stroke:#34495E;stroke-width:1;"/></g><!--link DStabLandOffset to DStabLand--><g class="link" data-entity-1="ent0051" data-entity-2="ent0053" data-link-type="dependency" data-source-line="52" id="lnk54"><path d="M768.16,1208.962 C768.16,1220.352 768.16,1227.912 768.16,1239.342" fill="none" id="DStabLandOffset-to-DStabLand" style="stroke:#34495E;stroke-width:1;"/><polygon fill="#34495E" points="768.16,1245.342,772.16,1236.342,768.16,1240.342,764.16,1236.342,768.16,1245.342" style="stroke:#34495E;stroke-width:1;"/></g><!--link DStabLand to DStabLeave--><g class="link" data-entity-1="ent0053" data-entity-2="ent0055" data-link-type="dependency" data-source-line="53" id="lnk56"><path d="M768.16,1295.962 C768.16,1307.352 768.16,1314.912 768.16,1326.342" fill="none" id="DStabLand-to-DStabLeave" style="stroke:#34495E;stroke-width:1;"/><polygon fill="#34495E" points="768.16,1332.342,772.16,1323.342,768.16,1327.342,764.16,1323.342,768.16,1332.342" style="stroke:#34495E;stroke-width:1;"/></g><!--link DStabLeave to *end*DStabAttack--><g class="link" data-entity-1="ent0055" data-entity-2="ent0057" data-link-type="dependency" data-source-line="54" id="lnk58"><path d="M768.16,1383.262 C768.16,1395.622 768.16,1403.962 768.16,1413.432" fill="none" id="DStabLeave-to-*end*DStabAttack" style="stroke:#34495E;stroke-width:1;"/><polygon fill="#34495E" points="768.16,1419.432,772.16,1410.432,768.16,1414.432,764.16,1410.432,768.16,1419.432" style="stroke:#34495E;stroke-width:1;"/></g><path d="M520.2,1529.8279 L805.8755,1529.8279 A3,3 0 0 1 808.8755,1532.8279 L808.8755,1556.172 L517.2,1556.172 L517.2,1532.8279 A3,3 0 0 1 520.2,1529.8279" fill="#F7F9FC"/><rect fill="none" height="421.3441" rx="3" ry="3" style="stroke:#2471A3;stroke-width:0.5;" width="291.6755" x="517.2" y="1529.8279"/><line style="stroke:#2471A3;stroke-width:0.5;" x1="517.2" x2="808.8755" y1="1556.172" y2="1556.172"/><text fill="#1A2533" font-family="'DejaVu Sans'" font-size="12" lengthAdjust="spacing" textLength="34.0082" x="646.0336" y="1547.656">Death</text><g class="start_entity" data-qualified-name="Death..start.Death" data-source-line="60" id="ent0060"><ellipse cx="584.31" cy="1577.172" fill="#222222" rx="10" ry="10" style="stroke:#222222;stroke-width:1;"/></g><g class="entity" data-qualified-name="Death.DeathHit" id="ent0061"><rect fill="#F7F9FC" height="50" rx="3" ry="3" style="stroke:#2471A3;stroke-width:0.5;" width="70.3283" x="549.14" y="1641.172"/><line style="stroke:#2471A3;stroke-width:0.5;" x1="549.14" x2="619.4683" y1="1667.5161" y2="1667.5161"/><text fill="#1A2533" font-family="'DejaVu Sans'" font-size="12" lengthAdjust="spacing" textLength="50.3283" x="559.14" y="1659.0001">DeathHit</text></g><g class="entity" data-qualified-name="Death.DeathLeaveOne" id="ent0063"><rect fill="#F7F9FC" height="50" rx="3" ry="3" style="stroke:#2471A3;stroke-width:0.5;" width="110.2166" x="529.2" y="1728.172"/><line style="stroke:#2471A3;stroke-width:0.5;" x1="529.2" x2="639.4166" y1="1754.5161" y2="1754.5161"/><text fill="#1A2533" font-family="'DejaVu Sans'" font-size="12" lengthAdjust="spacing" textLength="90.2166" x="539.2" y="1746.0001">DeathLeaveOne</text></g><g class="entity" data-qualified-name="Death.DeathLeaveTwo" id="ent0065"><rect fill="#F7F9FC" height="50" rx="3" ry="3" style="stroke:#2471A3;stroke-width:0.5;" width="110.0246" x="529.3" y="1815.172"/><line style="stroke:#2471A3;stroke-width:0.5;" x1="529.3" x2="639.3246" y1="1841.5161" y2="1841.5161"/><text fill="#1A2533" font-family="'DejaVu Sans'" font-size="12" lengthAdjust="spacing" textLength="90.0246" x="539.3" y="1833.0001">DeathLeaveTwo</text></g><g class="end_entity" data-qualified-name="Death..end.Death" data-source-line="63" id="ent0067"><ellipse cx="584.31" cy="1930.172" fill="none" rx="11" ry="11" style="stroke:#222222;stroke-width:1;"/><ellipse cx="584.31" cy="1930.172" fill="#222222" rx="6" ry="6" style="stroke:#222222;stroke-width:1;"/></g><!--link *start*Death to DeathHit--><g class="link" data-entity-1="ent0060" data-entity-2="ent0061" data-link-type="dependency" data-source-line="60" id="lnk62"><path d="M584.31,1587.482 C584.31,1600.112 584.31,1617.112 584.31,1634.822" fill="none" id="*start*Death-to-DeathHit" style="stroke:#34495E;stroke-width:1;"/><polygon fill="#34495E" points="584.31,1640.822,588.31,1631.822,584.31,1635.822,580.31,1631.822,584.31,1640.822" style="stroke:#34495E;stroke-width:1;"/><text fill="#000000" font-family="'DejaVu Sans'" font-size="12" lengthAdjust="spacing" textLength="112.4768" x="585.31" y="1619.0001">OnHealthDepleted()</text></g><!--link DeathHit to DeathLeaveOne--><g class="link" data-entity-1="ent0061" data-entity-2="ent0063" data-link-type="dependency" data-source-line="61" id="lnk64"><path d="M584.31,1691.302 C584.31,1702.692 584.31,1710.252 584.31,1721.682" fill="none" id="DeathHit-to-DeathLeaveOne" style="stroke:#34495E;stroke-width:1;"/><polygon fill="#34495E" points="584.31,1727.682,588.31,1718.682,584.31,1722.682,580.31,1718.682,584.31,1727.682" style="stroke:#34495E;stroke-width:1;"/></g><!--link DeathLeaveOne to DeathLeaveTwo--><g class="link" data-entity-1="ent0063" data-entity-2="ent0065" data-link-type="dependency" data-source-line="62" id="lnk66"><path d="M584.31,1778.302 C584.31,1789.692 584.31,1797.252 584.31,1808.682" fill="none" id="DeathLeaveOne-to-DeathLeaveTwo" style="stroke:#34495E;stroke-width:1;"/><polygon fill="#34495E" points="584.31,1814.682,588.31,1805.682,584.31,1809.682,580.31,1805.682,584.31,1814.682" style="stroke:#34495E;stroke-width:1;"/></g><!--link DeathLeaveTwo to *end*Death--><g class="link" data-entity-1="ent0065" data-entity-2="ent0067" data-link-type="dependency" data-source-line="63" id="lnk68"><path d="M584.31,1865.222 C584.31,1882.722 584.31,1899.572 584.31,1912.692" fill="none" id="DeathLeaveTwo-to-*end*Death" style="stroke:#34495E;stroke-width:1;"/><polygon fill="#34495E" points="584.31,1918.692,588.31,1909.692,584.31,1913.692,580.31,1909.692,584.31,1918.692" style="stroke:#34495E;stroke-width:1;"/><text fill="#000000" font-family="'DejaVu Sans'" font-size="12" lengthAdjust="spacing" textLength="213.5655" x="585.31" y="1897.0001">CommandReturnToThroneWounded()</text></g><g class="entity" data-qualified-name="ThroneWounded" id="ent0011"><rect fill="#F7F9FC" height="52.6882" rx="3" ry="3" style="stroke:#2471A3;stroke-width:0.5;" width="131.1088" x="597.48" y="2045.1679"/><line style="stroke:#2471A3;stroke-width:0.5;" x1="597.48" x2="728.5888" y1="2071.512" y2="2071.512"/><text fill="#1A2533" font-family="'DejaVu Sans'" font-size="12" lengthAdjust="spacing" textLength="95.2687" x="615.4001" y="2062.996">ThroneWounded</text><text fill="#1A2533" font-family="'DejaVu Sans'" font-size="12" lengthAdjust="spacing" textLength="111.1088" x="602.48" y="2089.3401">wounded pose held</text></g><g class="entity" data-qualified-name="ThroneBow" id="ent0012"><rect fill="#F7F9FC" height="52.6882" rx="3" ry="3" style="stroke:#2471A3;stroke-width:0.5;" width="250.3057" x="537.88" y="2175.8579"/><line style="stroke:#2471A3;stroke-width:0.5;" x1="537.88" x2="788.1857" y1="2202.202" y2="2202.202"/><text fill="#1A2533" font-family="'DejaVu Sans'" font-size="12" lengthAdjust="spacing" textLength="64.9805" x="630.5426" y="2193.686">ThroneBow</text><text fill="#1A2533" font-family="'DejaVu Sans'" font-size="12" lengthAdjust="spacing" textLength="230.3057" x="542.88" y="2220.0301">entry / set IsBowComplete on anim done</text></g><g class="start_entity" data-qualified-name=".start." data-source-line="10" id="ent0002"><ellipse cx="631.04" cy="75.5879" fill="#222222" rx="10" ry="10" style="stroke:#222222;stroke-width:1;"/></g><g class="entity" data-qualified-name="IdleOnThrone" id="ent0003"><rect fill="#F7F9FC" height="50" rx="3" ry="3" style="stroke:#2471A3;stroke-width:0.5;" width="98.5885" x="581.74" y="166.1079"/><line style="stroke:#2471A3;stroke-width:0.5;" x1="581.74" x2="680.3285" y1="192.452" y2="192.452"/><text fill="#1A2533" font-family="'DejaVu Sans'" font-size="12" lengthAdjust="spacing" textLength="78.5885" x="591.74" y="183.936">IdleOnThrone</text></g><g class="entity" data-qualified-name="ThroneStand" id="ent0005"><rect fill="#F7F9FC" height="50" rx="3" ry="3" style="stroke:#2471A3;stroke-width:0.5;" width="92.9365" x="584.57" y="294.1079"/><line style="stroke:#2471A3;stroke-width:0.5;" x1="584.57" x2="677.5065" y1="320.452" y2="320.452"/><text fill="#1A2533" font-family="'DejaVu Sans'" font-size="12" lengthAdjust="spacing" textLength="72.9365" x="594.57" y="311.936">ThroneStand</text></g><g class="entity" data-qualified-name="ThroneLeave" id="ent0007"><rect fill="#F7F9FC" height="50" rx="3" ry="3" style="stroke:#2471A3;stroke-width:0.5;" width="93.1405" x="584.47" y="422.1079"/><line style="stroke:#2471A3;stroke-width:0.5;" x1="584.47" x2="677.6105" y1="448.452" y2="448.452"/><text fill="#1A2533" font-family="'DejaVu Sans'" font-size="12" lengthAdjust="spacing" textLength="73.1405" x="594.47" y="439.936">ThroneLeave</text></g><g class="end_entity" data-qualified-name=".end." data-source-line="76" id="ent0075"><ellipse cx="663.04" cy="2300.5479" fill="none" rx="11" ry="11" style="stroke:#222222;stroke-width:1;"/><ellipse cx="663.04" cy="2300.5479" fill="#222222" rx="6" ry="6" style="stroke:#222222;stroke-width:1;"/></g><!--link *start* to IdleOnThrone--><g class="link" data-entity-1="ent0002" data-entity-2="ent0003" data-link-type="dependency" data-source-line="10" id="lnk4"><path d="M631.04,85.8779 C631.04,103.1379 631.04,134.6779 631.04,159.6679" fill="none" id="*start*-to-IdleOnThrone" style="stroke:#34495E;stroke-width:1;"/><polygon fill="#34495E" points="631.04,165.6679,635.04,156.6679,631.04,160.6679,627.04,156.6679,631.04,165.6679" style="stroke:#34495E;stroke-width:1;"/></g><!--link IdleOnThrone to ThroneStand--><g class="link" data-entity-1="ent0003" data-entity-2="ent0005" data-link-type="dependency" data-source-line="12" id="lnk6"><path d="M631.04,216.3979 C631.04,238.7079 631.04,265.5979 631.04,287.8879" fill="none" id="IdleOnThrone-to-ThroneStand" style="stroke:#34495E;stroke-width:1;"/><polygon fill="#34495E" points="631.04,293.8879,635.04,284.8879,631.04,288.8879,627.04,284.8879,631.04,293.8879" style="stroke:#34495E;stroke-width:1;"/><text fill="#000000" font-family="'DejaVu Sans'" font-size="12" lengthAdjust="spacing" textLength="110.7968" x="632.04" y="259.936">CommandActivate()</text></g><!--link ThroneStand to ThroneLeave--><g class="link" data-entity-1="ent0005" data-entity-2="ent0007" data-link-type="dependency" data-source-line="13" id="lnk8"><path d="M631.04,344.3979 C631.04,366.7079 631.04,393.5979 631.04,415.8879" fill="none" id="ThroneStand-to-ThroneLeave" style="stroke:#34495E;stroke-width:1;"/><polygon fill="#34495E" points="631.04,421.8879,635.04,412.8879,631.04,416.8879,627.04,412.8879,631.04,421.8879" style="stroke:#34495E;stroke-width:1;"/><text fill="#000000" font-family="'DejaVu Sans'" font-size="12" lengthAdjust="spacing" textLength="60.4084" x="632.04" y="387.936">anim done</text></g><!--link ThroneLeave to GracePeriod--><g class="link" data-entity-1="ent0007" data-entity-2="ent0003" data-link-type="dependency" data-source-line="14" id="lnk9"><path d="M631.04,472.4179 C631.04,498.4579 631.04,533.5979 631.04,560.0479" fill="none" id="ThroneLeave-to-GracePeriod" style="stroke:#34495E;stroke-width:1;"/><polygon fill="#34495E" points="631.04,566.0479,635.04,557.0479,631.04,561.0479,627.04,557.0479,631.04,566.0479" style="stroke:#34495E;stroke-width:1;"/><text fill="#000000" font-family="'DejaVu Sans'" font-size="12" lengthAdjust="spacing" textLength="67.9925" x="678.9903" y="515.936">anim done /</text><text fill="#000000" font-family="'DejaVu Sans'" font-size="12" lengthAdjust="spacing" textLength="161.8931" x="632.04" y="532.2801">CommandBeginAttackLoop()</text></g><!--link GracePeriod to WallAttack--><g class="link" data-entity-1="ent0003" data-entity-2="ent0004" data-link-type="dependency" data-source-line="17" id="lnk10"><path d="M537.47,596.2879 C390.1,601.7379 117.53,616.1379 88.04,648.7979 C6,739.6079 78.616,871.9843 151.156,965.6443" fill="none" id="GracePeriod-to-WallAttack" style="stroke:#34495E;stroke-width:1;"/><polygon fill="#34495E" points="154.83,970.3879,152.4815,960.8232,151.7684,966.4349,146.1566,965.7218,154.83,970.3879" style="stroke:#34495E;stroke-width:1;"/><text fill="#000000" font-family="'DejaVu Sans'" font-size="12" lengthAdjust="spacing" textLength="216.5536" x="89.04" y="662.626">cooldown done / PickNextAttack [20%]</text></g><!--link WallAttack to GracePeriod--><g class="link" data-entity-1="ent0004" data-entity-2="ent0003" data-link-type="dependency" data-source-line="31" id="lnk27"><path d="M308.25,731.6579 C324.4,700.7779 344.65,672.3479 370.04,648.7979 C394.31,626.2679 466.9616,612.4228 531.6116,603.8928" fill="none" id="WallAttack-to-GracePeriod" style="stroke:#34495E;stroke-width:1;"/><polygon fill="#34495E" points="537.56,603.1079,528.1141,600.3196,532.603,603.762,529.1606,608.2508,537.56,603.1079" style="stroke:#34495E;stroke-width:1;"/></g><!--link GracePeriod to DashAttack--><g class="link" data-entity-1="ent0003" data-entity-2="ent0006" data-link-type="dependency" data-source-line="18" id="lnk11"><path d="M537.5,602.6479 C476.95,610.7579 405.98,625.0779 387.04,648.7979 C373.72,665.4679 370.5663,689.3593 374.8663,725.7693" fill="none" id="GracePeriod-to-DashAttack" style="stroke:#34495E;stroke-width:1;"/><polygon fill="#34495E" points="375.57,731.7279,378.4868,722.3209,374.9836,726.7624,370.542,723.2592,375.57,731.7279" style="stroke:#34495E;stroke-width:1;"/><text fill="#000000" font-family="'DejaVu Sans'" font-size="12" lengthAdjust="spacing" textLength="216.5536" x="388.04" y="662.626">cooldown done / PickNextAttack [40%]</text></g><!--link DashAttack to GracePeriod--><g class="link" data-entity-1="ent0006" data-entity-2="ent0003" data-link-type="dependency" data-source-line="43" id="lnk42"><path d="M590.78,731.4179 C604.46,684.5279 614.5988,649.7776 621.8288,625.0076" fill="none" id="DashAttack-to-GracePeriod" style="stroke:#34495E;stroke-width:1;"/><polygon fill="#34495E" points="623.51,619.2479,617.1485,626.7666,622.109,624.0476,624.828,629.0082,623.51,619.2479" style="stroke:#34495E;stroke-width:1;"/></g><!--link GracePeriod to DStabAttack--><g class="link" data-entity-1="ent0003" data-entity-2="ent0008" data-link-type="dependency" data-source-line="19" id="lnk12"><path d="M638.62,619.2479 C644.01,637.5979 650.2496,658.8209 659.5896,690.6309" fill="none" id="GracePeriod-to-DStabAttack" style="stroke:#34495E;stroke-width:1;"/><polygon fill="#34495E" points="661.28,696.3879,662.5825,686.6256,659.8714,691.5904,654.9065,688.8794,661.28,696.3879" style="stroke:#34495E;stroke-width:1;"/><text fill="#000000" font-family="'DejaVu Sans'" font-size="12" lengthAdjust="spacing" textLength="216.5536" x="652.5" y="662.626">cooldown done / PickNextAttack [40%]</text></g><!--link DStabAttack to GracePeriod--><g class="link" data-entity-1="ent0008" data-entity-2="ent0003" data-link-type="dependency" data-source-line="56" id="lnk59"><path d="M901.75,834.1279 C919.42,768.7479 919.19,701.4779 877.04,648.7979 C857.86,624.8179 791.8087,611.2905 730.6187,603.2405" fill="none" id="DStabAttack-to-GracePeriod" style="stroke:#34495E;stroke-width:1;"/><polygon fill="#34495E" points="724.67,602.4579,733.0714,607.5976,729.6273,603.1101,734.1148,599.666,724.67,602.4579" style="stroke:#34495E;stroke-width:1;"/></g><!--link GracePeriod to Death--><g class="link" data-entity-1="ent0003" data-entity-2="ent0010" data-link-type="dependency" data-source-line="65" id="lnk69"><path d="M724.64,601.7779 C793.7,609.8079 879.99,624.4179 906.04,648.7979 C922.17,663.8979 916.12,674.8879 919.04,696.7979 C963.28,1029.4379 1038.38,1138.1979 919.04,1451.8279 C895.85,1512.7479 857.3307,1564.6463 813.3907,1610.9363" fill="none" id="GracePeriod-to-Death" style="stroke:#34495E;stroke-width:1;"/><polygon fill="#34495E" points="809.26,1615.2879,818.3572,1611.5143,812.7023,1611.6615,812.555,1606.0066,809.26,1615.2879" style="stroke:#34495E;stroke-width:1;"/><text fill="#000000" font-family="'DejaVu Sans'" font-size="12" lengthAdjust="spacing" textLength="112.4768" x="984.34" y="1079.136">OnHealthDepleted()</text></g><!--link WallAttack to Death--><g class="link" data-entity-1="ent0004" data-entity-2="ent0010" data-link-type="dependency" data-source-line="66" id="lnk70"><path d="M336.48,1416.6379 C342.59,1428.7379 349.1,1440.5179 356.04,1451.8279 C397.64,1519.7079 454.9134,1578.0343 512.2034,1627.1143" fill="none" id="WallAttack-to-Death" style="stroke:#34495E;stroke-width:1;"/><polygon fill="#34495E" points="516.76,1631.0179,512.5276,1622.1249,512.9629,1627.7649,507.3228,1628.2003,516.76,1631.0179" style="stroke:#34495E;stroke-width:1;"/><text fill="#000000" font-family="'DejaVu Sans'" font-size="12" lengthAdjust="spacing" textLength="112.4768" x="389.38" y="1495.656">OnHealthDepleted()</text></g><!--link DashAttack to Death--><g class="link" data-entity-1="ent0006" data-entity-2="ent0010" data-link-type="dependency" data-source-line="67" id="lnk71"><path d="M561.76,1417.2879 C568.58,1445.2979 575.7,1473.0979 583.04,1499.8279 C585.71,1509.5579 586.8408,1513.7236 589.7908,1523.7136" fill="none" id="DashAttack-to-Death" style="stroke:#34495E;stroke-width:1;"/><polygon fill="#34495E" points="591.49,1529.4679,592.7774,1519.7036,590.074,1524.6726,585.1049,1521.9692,591.49,1529.4679" style="stroke:#34495E;stroke-width:1;"/><text fill="#000000" font-family="'DejaVu Sans'" font-size="12" lengthAdjust="spacing" textLength="112.4768" x="584.04" y="1495.656">OnHealthDepleted()</text></g><!--link DStabAttack to Death--><g class="link" data-entity-1="ent0008" data-entity-2="ent0010" data-link-type="dependency" data-source-line="68" id="lnk72"><path d="M710.21,1452.0379 C705.86,1478.5379 702.5522,1498.7272 698.4422,1523.7572" fill="none" id="DStabAttack-to-Death" style="stroke:#34495E;stroke-width:1;"/><polygon fill="#34495E" points="697.47,1529.6779,702.8754,1521.445,698.2802,1524.744,694.9812,1520.1487,697.47,1529.6779" style="stroke:#34495E;stroke-width:1;"/><text fill="#000000" font-family="'DejaVu Sans'" font-size="12" lengthAdjust="spacing" textLength="112.4768" x="705.57" y="1495.656">OnHealthDepleted()</text></g><!--link Death to ThroneWounded--><g class="link" data-entity-1="ent0010" data-entity-2="ent0011" data-link-type="dependency" data-source-line="71" id="lnk73"><path d="M663.04,1951.2679 C663.04,1988.6679 663.04,2016.6779 663.04,2038.7179" fill="none" id="Death-to-ThroneWounded" style="stroke:#34495E;stroke-width:1;"/><polygon fill="#34495E" points="663.04,2044.7179,667.04,2035.7179,663.04,2039.7179,659.04,2035.7179,663.04,2044.7179" style="stroke:#34495E;stroke-width:1;"/><text fill="#000000" font-family="'DejaVu Sans'" font-size="12" lengthAdjust="spacing" textLength="26.9162" x="749.0846" y="1994.996">after</text><text fill="#000000" font-family="'DejaVu Sans'" font-size="12" lengthAdjust="spacing" textLength="197.0054" x="664.04" y="2011.3401">MantisPostDeathToWoundedDelay</text></g><!--link ThroneWounded to ThroneBow--><g class="link" data-entity-1="ent0011" data-entity-2="ent0012" data-link-type="dependency" data-source-line="75" id="lnk74"><path d="M663.04,2098.2479 C663.04,2120.6879 663.04,2147.0879 663.04,2169.5179" fill="none" id="ThroneWounded-to-ThroneBow" style="stroke:#34495E;stroke-width:1;"/><polygon fill="#34495E" points="663.04,2175.5179,667.04,2166.5179,663.04,2170.5179,659.04,2166.5179,663.04,2175.5179" style="stroke:#34495E;stroke-width:1;"/><text fill="#000000" font-family="'DejaVu Sans'" font-size="12" lengthAdjust="spacing" textLength="90.5046" x="664.04" y="2141.686">CommandBow()</text></g><!--link ThroneBow to *end*--><g class="link" data-entity-1="ent0012" data-entity-2="ent0075" data-link-type="dependency" data-source-line="76" id="lnk76"><path d="M663.04,2229.0179 C663.04,2248.8679 663.04,2269.2079 663.04,2283.4179" fill="none" id="ThroneBow-to-*end*" style="stroke:#34495E;stroke-width:1;"/><polygon fill="#34495E" points="663.04,2289.4179,667.04,2280.4179,663.04,2284.4179,659.04,2280.4179,663.04,2289.4179" style="stroke:#34495E;stroke-width:1;"/></g><?plantuml-src ZLRDRXCn4BxlKmoL40bIMwWuSK1g6a4h1LALG0zjXPpTITRKiLUsqn1G9Hw29-H96DkxjfEMjfTsxU_ppFYR7-SPbwLOLWZVZ5qBt6kM2r5ORWN2HoOjDoEbA_Zx-mzyjiowpRBc4g6dw8yWh5yKKX7037mg0Bv8mQOe15PWDPE6Mwwa0KvVvCJMHBIMbTT4BTMYKKH00pEk4PI47TDexen9lc3k926IcnghdJqwyK6p4azHSrK1DzvQlPpIVsQXuULrs9BumxPUzWgK5RZuYkBYvHNixhw3aqhWM4vgJJSeYdpbuV19bwM3R-58BHRqTLXQVaFNx_MB74_y4R8R9BuB72fdETztl3psZ0Vxbx9rCi0vbuS-xf5I3VagZDTyyoXAgzUmx_AXRQ0VAIKgjP9q9ESwj-TCY402EbksnDOrd99edqYkbd5nyEhvrHqJGsRgfvjuSwy92dRQCfveehrx5lylgW20BeqEy1AGmKQmDGYN4QEMilAyX4SPjEOt6C6mZEWPiceTGR-A-Ltv_H2GNsTfyANRQFKTgKO4calPOyAYbbI_Saujijgl-RpkUnFXSEVI5yVhw3CiDz63JVJ0eoH1SLjaocpLLwTTbhXDxHpma7O9Z_bFsgLbGcbGbBmXduaHjoBBbNtRHrG2akAoKB45csCcRqki54cxKEIZLfh_T6mXrj5wj7c69P5q1DfrnBrg4KtT62JC1FgVX5dXRcdea2YY2eCEsDJ5V2qfupQuJRJK29cOQPtmyMncC3iUrWdFvNBh3RryOz4y3DFRUsyGgsGjsHbHrhTzfRrDtYOZmvB0SPahdEbtH-8NjBKBGsIsXYaz5cKDlP99UYoeV_IoeIakrw5cCDotxqvqgV7djfBYzewvIybO7YCrOZt4Hg35gXSwC38YtOSybfZWRcUBCrcfBGxjT7TDRyKPsgMM4nKUW7FNLDxxxTsfw6zmRwZvs7w4ce_dnwXRsNY0MgHf5oz1p5NxHGLFhOcYAeADz18cBfjH6YzbACHJPQodJbJB629Ddgu8llBIAfgdKngFlJ88IKQcQnWeOzwxTZgY8Q0L_RBGUHK4fuEDaUoAzyJG7cN4NyZzjDX-cRiuK-J1IFSOgrLyx0Vjp7Ob_Gy0?></g></svg>